<?xml version="1.0" encoding="utf-8"?>
<!-- Generator: Adobe Illustrator 24.0.2, SVG Export Plug-In . SVG Version: 6.00 Build 0)  -->
<svg version="1.1" id="Capa_1" xmlns="http://www.w3.org/2000/svg" xmlns:xlink="http://www.w3.org/1999/xlink" x="0px" y="0px"
	 viewBox="0 0 485.2 299.3" style="enable-background:new 0 0 485.2 299.3;" xml:space="preserve">
<style type="text/css">
	.st0{fill:#1D1D1B;}
	.st1{font-family:'Helvetica';}
	.st2{font-size:14.8027px;}
	.st3{clip-path:url(#SVGID_2_);}
	.st4{font-family:'Helvetica-Light';}
	.st5{font-size:9.569px;}
	.st6{fill:#703A7A;}
	.st7{fill:#6679A7;}
	.st8{fill:#8AC485;}
	.st9{fill:#FCED5A;}
	.st10{clip-path:url(#SVGID_4_);}
	.st11{font-size:8.1524px;}
	.st12{clip-path:url(#SVGID_4_);fill:#703A7A;}
	.st13{clip-path:url(#SVGID_4_);fill:#6679A7;}
	.st14{clip-path:url(#SVGID_4_);fill:#8AC485;}
	.st15{clip-path:url(#SVGID_4_);fill:#FCED5A;}
	.st16{fill:#010101;}
	.st17{font-size:10.267px;}
</style>
<text transform="matrix(1 0 0 1 20.1606 18.0099)" class="st0 st1 st2">Distribución del porcentaje de población que vive en entornos según </text>
<text transform="matrix(1 0 0 1 135.3701 32.8121)" class="st0 st1 st2">el íncide de accesibilidad general</text>
<g>
	<defs>
		<rect id="SVGID_1_" x="4" width="487" height="299.3"/>
	</defs>
	<clipPath id="SVGID_2_">
		<use xlink:href="#SVGID_1_"  style="overflow:visible;"/>
	</clipPath>
	<g class="st3">
		<text transform="matrix(1.0048 0 0 1 26.0898 55.2306)" class="st0 st4 st5">Barcelona</text>
	</g>
	<g class="st3">
		<text transform="matrix(1.0048 0 0 1 134.9839 55.2306)" class="st0 st4 st5">Bilbao</text>
	</g>
	<g class="st3">
		<text transform="matrix(1.0048 0 0 1 201.7139 55.2306)" class="st0 st4 st5">Las Palmas de GC</text>
	</g>
	<g class="st3">
		<text transform="matrix(1.0048 0 0 1 323.8574 54.2267)" class="st0 st4 st5">Madrid</text>
	</g>
	<g class="st3">
		<text transform="matrix(1.0048 0 0 1 420.0586 54.2267)" class="st0 st4 st5">Málaga</text>
	</g>
	<g class="st3">
		<text transform="matrix(1.0048 0 0 1 33.311 175.2452)" class="st0 st4 st5">Murcia</text>
	</g>
	<g class="st3">
		<text transform="matrix(1.0048 0 0 1 135.2529 175.2452)" class="st0 st4 st5">Palma</text>
	</g>
	<g class="st3">
		<text transform="matrix(1.0048 0 0 1 237.2524 175.2452)" class="st0 st4 st5">Sevilla</text>
	</g>
	<g class="st3">
		<text transform="matrix(1.0048 0 0 1 327.5107 175.2452)" class="st0 st4 st5">Valencia</text>
	</g>
	<g class="st3">
		<text transform="matrix(1.0048 0 0 1 420.6836 175.2452)" class="st0 st4 st5">Zaragoza</text>
	</g>
</g>
<rect x="146.8" y="289.7" class="st6" width="17.1" height="9.6"/>
<rect x="204.9" y="289.7" class="st7" width="17.1" height="9.6"/>
<rect x="261" y="289.7" class="st8" width="17.1" height="9.6"/>
<rect x="318.5" y="289.7" class="st9" width="17.1" height="9.6"/>
<g>
	<defs>
		<rect id="SVGID_3_" x="4" width="487" height="299.3"/>
	</defs>
	<clipPath id="SVGID_4_">
		<use xlink:href="#SVGID_3_"  style="overflow:visible;"/>
	</clipPath>
	<g class="st10">
		<text transform="matrix(1.0048 0 0 1 166.1665 298.0636)" class="st0 st4 st11">De 0 a 1</text>
	</g>
	<g class="st10">
		<text transform="matrix(1.0048 0 0 1 224.2954 298.0636)" class="st0 st4 st11">De 1 a 2</text>
	</g>
	<g class="st10">
		<text transform="matrix(1.0048 0 0 1 279.7383 298.0636)" class="st0 st4 st11">De 2 a 3</text>
	</g>
	<g class="st10">
		<text transform="matrix(1.0048 0 0 1 339.6953 298.0636)" class="st0 st4 st11"> 3</text>
	</g>
	<path class="st12" d="M45.5,63.7c3.5,0,7,0.4,10.4,1.3L45.5,105V63.7z"/>
	<path class="st12" d="M45.5,63.7c3.5,0,7,0.4,10.4,1.3L45.5,105V63.7z"/>
	<path class="st13" d="M55.9,65C70.9,68.9,82.5,80.9,85.9,96l-40.4,9L55.9,65z"/>
	<path class="st13" d="M55.9,65C70.9,68.9,82.5,80.9,85.9,96l-40.4,9L55.9,65z"/>
	<path class="st14" d="M85.9,96c5,22.2-9,44.2-31.2,49.2L45.5,105L85.9,96z"/>
	<path class="st14" d="M85.9,96c5,22.2-9,44.2-31.2,49.2L45.5,105L85.9,96z"/>
	<path class="st15" d="M54.7,145.2c-22.3,5-44.5-8.9-49.6-31.1C0,91.9,14,69.8,36.3,64.8c3-0.7,6.1-1,9.2-1V105L54.7,145.2z"/>
	<path class="st15" d="M54.7,145.2c-22.3,5-44.5-8.9-49.6-31.1C0,91.9,14,69.8,36.3,64.8c3-0.7,6.1-1,9.2-1V105L54.7,145.2z"/>
	<path class="st12" d="M142,64.5c6,0,11.9,1.3,17.3,3.9L142,104.9V64.5z"/>
	<path class="st12" d="M142,64.5c6,0,11.9,1.3,17.3,3.9L142,104.9V64.5z"/>
	<path class="st13" d="M159.3,68.4c14.2,6.7,23.3,21,23.2,36.6l-40.5-0.1L159.3,68.4z"/>
	<path class="st13" d="M159.3,68.4c14.2,6.7,23.3,21,23.2,36.6l-40.5-0.1L159.3,68.4z"/>
	<path class="st14" d="M182.5,105c-0.1,22.3-18.3,40.3-40.7,40.2c-1.1,0-2.2-0.1-3.3-0.1l3.5-40.2L182.5,105z"/>
	<path class="st14" d="M182.5,105c-0.1,22.3-18.3,40.3-40.7,40.2c-1.1,0-2.2-0.1-3.3-0.1l3.5-40.2L182.5,105z"/>
	<path class="st15" d="M138.5,145c-22.3-1.9-38.8-21.5-36.9-43.6c1.8-20.8,19.3-36.9,40.4-36.9v40.3L138.5,145z"/>
	<path class="st15" d="M138.5,145c-22.3-1.9-38.8-21.5-36.9-43.6c1.8-20.8,19.3-36.9,40.4-36.9v40.3L138.5,145z"/>
	<path class="st12" d="M236.9,64.5c10.3,0,20.2,3.9,27.7,11l-27.7,29.1V64.5z"/>
	<path class="st12" d="M236.9,64.5c10.3,0,20.2,3.9,27.7,11l-27.7,29.1V64.5z"/>
	<path class="st13" d="M264.6,75.5c16.2,15.2,16.9,40.6,1.5,56.7c-2.9,3-6.2,5.6-9.9,7.6l-19.4-35.2L264.6,75.5z"/>
	<path class="st13" d="M264.6,75.5c16.2,15.2,16.9,40.6,1.5,56.7c-2.9,3-6.2,5.6-9.9,7.6l-19.4-35.2L264.6,75.5z"/>
	<path class="st14" d="M256.3,139.8c-15.6,8.5-34.9,5.9-47.6-6.5l28.2-28.7L256.3,139.8z"/>
	<path class="st14" d="M256.3,139.8c-15.6,8.5-34.9,5.9-47.6-6.5l28.2-28.7L256.3,139.8z"/>
	<path class="st15" d="M208.6,133.3c-15.9-15.5-16.2-40.9-0.6-56.7c7.6-7.7,18-12,28.8-12v40.1L208.6,133.3z"/>
	<path class="st15" d="M208.6,133.3c-15.9-15.5-16.2-40.9-0.6-56.7c7.6-7.7,18-12,28.8-12v40.1L208.6,133.3z"/>
	<path class="st12" d="M340.1,65.9c7.4,0,14.8,2,21.2,5.8l-21.2,35.5V65.9z"/>
	<path class="st12" d="M340.1,65.9c7.4,0,14.8,2,21.2,5.8l-21.2,35.5V65.9z"/>
	<path class="st13" d="M361.3,71.7c16,9.4,23.7,28.2,18.9,46.1l-40-10.6L361.3,71.7z"/>
	<path class="st13" d="M361.3,71.7c16,9.4,23.7,28.2,18.9,46.1l-40-10.6L361.3,71.7z"/>
	<path class="st14" d="M380.1,117.8c-6,22.8-30.5,36-53,28.5l13-39.2L380.1,117.8z"/>
	<path class="st14" d="M380.1,117.8c-6,22.8-30.5,36-53,28.5l13-39.2L380.1,117.8z"/>
	<path class="st15" d="M327.1,146.3c-44.1-14-33.2-80.9,13-80.4v41.2L327.1,146.3z"/>
	<path class="st15" d="M327.1,146.3c-44.1-14-33.2-80.9,13-80.4v41.2L327.1,146.3z"/>
	<path class="st12" d="M438.2,66.8c12.5,0,24.2,5.6,32.1,15.2L438.2,108V66.8z"/>
	<path class="st12" d="M438.2,66.8c12.5,0,24.2,5.6,32.1,15.2L438.2,108V66.8z"/>
	<path class="st13" d="M470.3,81.9c14.4,17.6,11.8,43.5-5.8,57.9L438.2,108L470.3,81.9z"/>
	<path class="st13" d="M470.3,81.9c14.4,17.6,11.8,43.5-5.8,57.9L438.2,108L470.3,81.9z"/>
	<path class="st14" d="M464.5,139.9c-16.9,13.8-41.6,12.2-56.5-3.6l30.2-28.2L464.5,139.9z"/>
	<path class="st14" d="M464.5,139.9c-16.9,13.8-41.6,12.2-56.5-3.6l30.2-28.2L464.5,139.9z"/>
	<path class="st15" d="M407.9,136.2c-25-25-5-70.5,30.2-69.5V108L407.9,136.2z"/>
	<path class="st15" d="M407.9,136.2c-25-25-5-70.5,30.2-69.5V108L407.9,136.2z"/>
	<path class="st12" d="M47.6,183.6c22.9,0,41.4,18.5,41.4,41.2c0,2.6-0.3,5.3-0.8,7.8l-40.7-7.8V183.6z"/>
	<path class="st12" d="M47.6,183.6c22.9,0,41.4,18.5,41.4,41.2c0,2.6-0.3,5.3-0.8,7.8l-40.7-7.8V183.6z"/>
	<path class="st13" d="M88.3,232.7c-4.3,22.4-26.1,37-48.6,32.7c-6-1.2-11.6-3.6-16.6-7.2l24.4-33.3L88.3,232.7z"/>
	<path class="st13" d="M88.3,232.7c-4.3,22.4-26.1,37-48.6,32.7c-6-1.2-11.6-3.6-16.6-7.2l24.4-33.3L88.3,232.7z"/>
	<path class="st14" d="M23.1,258.1C4.9,244.9,0.7,219.4,13.7,201l33.8,23.8L23.1,258.1z"/>
	<path class="st14" d="M23.1,258.1C4.9,244.9,0.7,219.4,13.7,201l33.8,23.8L23.1,258.1z"/>
	<path class="st15" d="M13.7,200.2c7.8-10.9,20.4-17.4,33.8-17.4V224L13.7,200.2z"/>
	<path class="st15" d="M13.7,200.2c7.8-10.9,20.4-17.4,33.8-17.4V224L13.7,200.2z"/>
	<path class="st12" d="M142.1,183.6c7.6,0,15,2.1,21.4,5.9l-21.4,35.3V183.6z"/>
	<path class="st12" d="M142.1,183.6c7.6,0,15,2.1,21.4,5.9l-21.4,35.3V183.6z"/>
	<path class="st13" d="M163.5,190.4c13.3,8,21,22.8,19.9,38.3l-41.3-3L163.5,190.4z"/>
	<path class="st13" d="M163.5,190.4c13.3,8,21,22.8,19.9,38.3l-41.3-3L163.5,190.4z"/>
	<path class="st14" d="M183.4,228.7c-1.6,22.7-21.5,39.8-44.3,38.2c-10.4-0.7-20.2-5.4-27.3-13l30.3-28.1L183.4,228.7z"/>
	<path class="st14" d="M183.4,228.7c-1.6,22.7-21.5,39.8-44.3,38.2c-10.4-0.7-20.2-5.4-27.3-13l30.3-28.1L183.4,228.7z"/>
	<path class="st15" d="M111.7,253.8c-15.6-16.7-14.7-42.8,2.1-58.3c7.7-7.1,17.8-11.1,28.2-11.1v41.2L111.7,253.8z"/>
	<path class="st15" d="M111.7,253.8c-15.6-16.7-14.7-42.8,2.1-58.3c7.7-7.1,17.8-11.1,28.2-11.1v41.2L111.7,253.8z"/>
	<path class="st12" d="M244.5,183.6c7.1,0,14.1,1.9,20.3,5.4l-20.3,35V183.6z"/>
	<path class="st12" d="M244.5,183.6c7.1,0,14.1,1.9,20.3,5.4l-20.3,35V183.6z"/>
	<path class="st13" d="M264.8,189.8c14,8,21.9,23.6,20.1,39.6l-40.3-4.6L264.8,189.8z"/>
	<path class="st13" d="M264.8,189.8c14,8,21.9,23.6,20.1,39.6l-40.3-4.6L264.8,189.8z"/>
	<path class="st14" d="M284.8,229.5c-2.6,22.2-22.7,38.1-45,35.5c-4.1-0.5-8.1-1.6-11.9-3.2l16.5-36.9L284.8,229.5z"/>
	<path class="st14" d="M284.8,229.5c-2.6,22.2-22.7,38.1-45,35.5c-4.1-0.5-8.1-1.6-11.9-3.2l16.5-36.9L284.8,229.5z"/>
	<path class="st15" d="M228,261.7c-20.5-9.1-29.7-33-20.5-53.4c6.5-14.6,21.1-23.9,37.1-23.9v40.4L228,261.7z"/>
	<path class="st15" d="M228,261.7c-20.5-9.1-29.7-33-20.5-53.4c6.5-14.6,21.1-23.9,37.1-23.9v40.4L228,261.7z"/>
	<path class="st12" d="M341.8,184.4c14.1,0,27.1,7.2,34.5,19.1l-34.5,21.3V184.4z"/>
	<path class="st12" d="M341.8,184.4c14.1,0,27.1,7.2,34.5,19.1l-34.5,21.3V184.4z"/>
	<path class="st13" d="M376.3,204.4c7.9,12.8,8.1,28.8,0.5,41.8l-35-20.5L376.3,204.4z"/>
	<path class="st13" d="M376.3,204.4c7.9,12.8,8.1,28.8,0.5,41.8l-35-20.5L376.3,204.4z"/>
	<path class="st14" d="M376.8,246.2c-11.4,19.2-36.3,25.6-55.6,14.3c-1.7-1-3.3-2.1-4.8-3.3l25.4-31.5L376.8,246.2z"/>
	<path class="st14" d="M376.8,246.2c-11.4,19.2-36.3,25.6-55.6,14.3c-1.7-1-3.3-2.1-4.8-3.3l25.4-31.5L376.8,246.2z"/>
	<path class="st15" d="M316.4,257.2c-17.5-14-20.3-39.4-6.3-56.8c7.7-9.6,19.4-15.1,31.7-15.1v40.4L316.4,257.2z"/>
	<path class="st15" d="M316.4,257.2c-17.5-14-20.3-39.4-6.3-56.8c7.7-9.6,19.4-15.1,31.7-15.1v40.4L316.4,257.2z"/>
	<path class="st12" d="M437,182.7c10.1,0,19.8,3.7,27.3,10.5L437,223.1V182.7z"/>
	<path class="st12" d="M437,182.7c10.1,0,19.8,3.7,27.3,10.5L437,223.1V182.7z"/>
	<path class="st13" d="M464.3,194.1c11.4,10.2,15.9,26,11.9,40.7L437,224L464.3,194.1z"/>
	<path class="st13" d="M464.3,194.1c11.4,10.2,15.9,26,11.9,40.7L437,224L464.3,194.1z"/>
	<path class="st14" d="M476.1,234.8c-5.8,20.9-27.1,33.5-48.4,28.6L437,224L476.1,234.8z"/>
	<path class="st14" d="M476.1,234.8c-5.8,20.9-27.1,33.5-48.4,28.6L437,224L476.1,234.8z"/>
	<path class="st15" d="M427.8,263.3c-21.8-5.1-35.4-26.8-30.3-48.5c4.3-18.3,20.7-31.2,39.5-31.2V224L427.8,263.3z"/>
	<path class="st15" d="M427.8,263.3c-21.8-5.1-35.4-26.8-30.3-48.5c4.3-18.3,20.7-31.2,39.5-31.2V224L427.8,263.3z"/>
	<g class="st10">
		<text transform="matrix(1.0048 0 0 1 13.7456 104.6681)" class="st16 st4 st17">54%</text>
	</g>
	<g class="st10">
		<text transform="matrix(1.0048 0 0 1 106.895 107.1529)" class="st16 st4 st17">49%</text>
	</g>
	<g class="st10">
		<text transform="matrix(1.0048 0 0 1 204.9463 96.7423)" class="st16 st4 st17">38%</text>
	</g>
	<g class="st10">
		<text transform="matrix(1.0048 0 0 1 305.7715 108.0055)" class="st16 st4 st17">45%</text>
	</g>
	<g class="st10">
		<text transform="matrix(1.0048 0 0 1 407.9492 98.9293)" class="st16 st4 st17">37%</text>
	</g>
	<g class="st10">
		<text transform="matrix(1.0048 0 0 1 23.1333 202.6984)" class="st16 st4 st17">15%</text>
	</g>
	<g class="st10">
		<text transform="matrix(1.0048 0 0 1 111.7231 221.2306)" class="st16 st4 st17">34%</text>
	</g>
	<g class="st10">
		<text transform="matrix(1.0048 0 0 1 212.0952 225.6857)" class="st16 st4 st17">43</text>
	</g>
	<g class="st10">
		<text transform="matrix(1.0048 0 0 1 223.5571 225.6857)" class="st16 st4 st17">%</text>
	</g>
	<g class="st10">
		<text transform="matrix(1.0048 0 0 1 309.8779 223.0773)" class="st16 st4 st17">39%</text>
	</g>
	<g class="st10">
		<text transform="matrix(1.0048 0 0 1 405.1328 220.6134)" class="st16 st4 st17">46%</text>
	</g>
</g>
</svg>
