<?xml version="1.0" encoding="utf-8"?>
<!-- Generator: Adobe Illustrator 24.0.2, SVG Export Plug-In . SVG Version: 6.00 Build 0)  -->
<svg version="1.1" id="Capa_1" xmlns="http://www.w3.org/2000/svg" xmlns:xlink="http://www.w3.org/1999/xlink" x="0px" y="0px"
	 viewBox="0 0 445.09 298.11" style="enable-background:new 0 0 445.09 298.11;" xml:space="preserve">
<style type="text/css">
	.st0{fill:#B9D6DD;}
	.st1{fill:#ACDBE4;}
	.st2{fill:#94CFD9;}
	.st3{fill:#B8D9AB;}
	.st4{fill:#B3D7A9;}
	.st5{fill:#EDF7F9;}
	.st6{fill:#E8F5F7;}
	.st7{fill:#020203;}
	.st8{font-family:'Helvetica-Light';}
	.st9{font-size:10.2465px;}
	.st10{font-size:8.7527px;}
	.st11{font-size:16.5594px;}
	.st12{font-family:'Helvetica-LightOblique';}
	.st13{font-size:7.0608px;}
	.st14{font-size:9px;}
	.st15{fill:#7DCAD8;}
	.st16{fill:#BCD896;}
</style>
<path class="st0" d="M221.5,157.76l6.78,2.26l0.12-0.37l-6.78-2.26L221.5,157.76z M228.18,159.96l4.52,5.65l0.31-0.24l-4.52-5.65
	L228.18,159.96z M232.66,172.83h0.39v-7.34h-0.39V172.83z M232.7,172.7l-4.52,5.65l0.31,0.25l4.52-5.65L232.7,172.7z M228.27,178.29
	l-6.78,2.26l0.12,0.37l6.78-2.26L228.27,178.29z M221.62,180.55l-6.78-2.26l-0.12,0.37l6.78,2.26L221.62,180.55z M214.94,178.36
	l-3.95-5.65l-0.32,0.23l3.95,5.65L214.94,178.36z M211.03,165.48h-0.39v7.34h0.39V165.48z M210.99,165.6l3.95-5.65l-0.32-0.23
	l-3.95,5.65L210.99,165.6z M214.84,160.02l6.78-2.26l-0.12-0.37l-6.78,2.26L214.84,160.02z M221.5,146.47l13.55,4.52l0.12-0.37
	l-13.55-4.52L221.5,146.47z M234.96,150.92l8.47,11.3l0.31-0.24l-8.47-11.29L234.96,150.92z M243.39,176.21h0.39V162.1h-0.39V176.21
	z M243.43,176.1l-8.47,11.29l0.31,0.24l8.47-11.29L243.43,176.1z M235.05,187.32l-13.55,4.52l0.12,0.37l13.55-4.52L235.05,187.32z
	 M221.62,191.84l-12.99-4.52l-0.13,0.37l12.99,4.52L221.62,191.84z M208.73,187.39l-8.47-11.29l-0.31,0.24l8.47,11.29L208.73,187.39
	z M200.3,162.1h-0.39v14.12h0.39V162.1z M200.26,162.21l8.47-11.3l-0.31-0.24l-8.47,11.29L200.26,162.21z M208.63,150.99l12.99-4.52
	l-0.13-0.37l-12.99,4.52L208.63,150.99z M221.5,135.18l20.33,6.21l0.11-0.38l-20.33-6.21L221.5,135.18z M241.73,141.31l12.42,17.51
	l0.32-0.23l-12.43-17.51L241.73,141.31z M254.12,179.6h0.39v-20.9h-0.39V179.6z M254.16,179.49L241.73,197l0.32,0.23l12.43-17.51
	L254.16,179.49z M241.83,196.92l-20.33,6.21l0.12,0.38l20.33-6.21L241.83,196.92z M221.62,203.13l-19.77-6.21l-0.12,0.37l19.77,6.21
	L221.62,203.13z M201.95,196.99l-12.99-17.51l-0.31,0.23l12.99,17.51L201.95,196.99z M189,158.71h-0.39v20.9H189V158.71z
	 M188.96,158.82l12.99-17.51l-0.31-0.23l-12.99,17.51L188.96,158.82z M201.85,141.39l19.77-6.21l-0.12-0.38l-19.77,6.21
	L201.85,141.39z M221.5,123.31l27.11,9.04l0.12-0.37l-27.11-9.04L221.5,123.31z M248.51,132.28l16.94,23.16l0.32-0.23l-16.94-23.16
	L248.51,132.28z M265.41,183.56h0.39v-28.24h-0.39V183.56z M265.45,183.44l-16.94,22.59l0.31,0.24l16.94-22.59L265.45,183.44z
	 M248.61,205.96L221.5,215l0.12,0.37l27.11-9.04L248.61,205.96z M221.62,215l-26.54-9.04l-0.13,0.37l26.54,9.04L221.62,215z
	 M195.17,206.03l-16.94-22.59l-0.31,0.24l16.94,22.59L195.17,206.03z M178.27,155.32h-0.39v28.24h0.39V155.32z M178.23,155.44
	l16.94-23.16l-0.32-0.23l-16.94,23.16L178.23,155.44z M195.08,132.35l26.54-9.04l-0.13-0.37l-26.54,9.04L195.08,132.35z
	 M221.5,112.02l33.89,10.73l0.12-0.37l-33.88-10.73L221.5,112.02z M255.29,122.68l20.9,28.8l0.32-0.23l-20.89-28.8L255.29,122.68z
	 M276.14,186.94h0.39v-35.58h-0.39V186.94z M276.18,186.83l-20.9,28.8l0.32,0.23l20.89-28.8L276.18,186.83z M255.39,215.56
	l-33.89,10.73l0.12,0.37l33.88-10.73L255.39,215.56z M221.62,226.29l-33.32-10.73l-0.12,0.37l33.32,10.73L221.62,226.29z
	 M188.4,215.63l-20.9-28.8l-0.32,0.23l20.9,28.8L188.4,215.63z M167.54,151.37h-0.39v35.58h0.39V151.37z M167.5,151.48l20.9-28.8
	l-0.32-0.23l-20.9,28.8L167.5,151.48z M188.3,122.75l33.32-10.73l-0.12-0.37l-33.32,10.73L188.3,122.75z M221.5,100.72l40.66,12.99
	l0.12-0.37l-40.66-12.99L221.5,100.72z M262.06,113.64l24.85,34.45l0.32-0.23l-24.85-34.45L262.06,113.64z M286.87,190.33h0.39
	v-42.36h-0.39V190.33z M286.91,190.22l-24.85,34.45l0.32,0.23l24.85-34.45L286.91,190.22z M262.16,224.6l-40.66,12.99l0.12,0.37
	l40.66-12.99L262.16,224.6z M221.62,237.59l-40.1-12.99l-0.12,0.37l40.1,12.99L221.62,237.59z M181.62,224.67l-24.85-34.45
	l-0.32,0.23l24.85,34.45L181.62,224.67z M156.81,147.98h-0.39v42.36h0.39V147.98z M156.77,148.09l24.85-34.45l-0.32-0.23
	l-24.85,34.45L156.77,148.09z M181.52,113.71l40.1-12.99l-0.12-0.37l-40.1,12.99L181.52,113.71z M221.5,89.43l47.44,15.25l0.12-0.37
	l-47.44-15.25L221.5,89.43z M268.84,104.61l28.8,40.1l0.32-0.23l-28.8-40.1L268.84,104.61z M297.6,193.72H298v-49.13h-0.39V193.72z
	 M297.64,193.61l-28.8,40.66l0.32,0.23l28.8-40.66L297.64,193.61z M268.94,234.2l-47.44,15.25l0.12,0.37l47.44-15.25L268.94,234.2z
	 M221.62,249.45l-46.88-15.25l-0.12,0.37l46.87,15.25L221.62,249.45z M174.84,234.27l-29.37-40.66l-0.32,0.23l29.37,40.66
	L174.84,234.27z M145.51,144.59h-0.39v49.13h0.39V144.59z M145.48,144.7l29.37-40.1l-0.32-0.23l-29.37,40.1L145.48,144.7z
	 M174.75,104.68l46.88-15.25l-0.12-0.37l-46.87,15.25L174.75,104.68z M221.5,77.57l54.22,17.51l0.12-0.37L221.62,77.2L221.5,77.57z
	 M275.62,95.01l33.32,45.74l0.32-0.23l-33.32-45.74L275.62,95.01z M308.9,197.68h0.39v-57.04h-0.39V197.68z M308.94,197.56
	l-33.32,45.74l0.32,0.23l33.32-45.74L308.94,197.56z M275.72,243.23l-54.22,17.51l0.12,0.37l54.22-17.51L275.72,243.23z
	 M221.62,260.74l-53.65-17.51l-0.12,0.37l53.65,17.51L221.62,260.74z M168.07,243.3l-33.32-45.74l-0.32,0.23l33.32,45.74
	L168.07,243.3z M134.78,140.64h-0.39v57.04h0.39V140.64z M134.75,140.75l33.32-45.74l-0.32-0.23l-33.32,45.74L134.75,140.75z
	 M167.97,95.08l53.65-17.51l-0.12-0.37L167.85,94.7L167.97,95.08z M221.5,66.27l60.99,19.77l0.12-0.37L221.62,65.9L221.5,66.27z
	 M282.39,85.97l37.27,51.39l0.32-0.23l-37.27-51.39L282.39,85.97z M319.63,201.06h0.39v-63.82h-0.39V201.06z M319.67,200.95
	l-37.27,51.39l0.32,0.23l37.27-51.39L319.67,200.95z M282.49,252.27l-60.99,19.77l0.12,0.37l60.99-19.77L282.49,252.27z
	 M221.62,272.04l-60.43-19.77l-0.12,0.37l60.43,19.77L221.62,272.04z M161.29,252.34l-37.27-51.39l-0.32,0.23l37.27,51.39
	L161.29,252.34z M124.05,137.25h-0.39v63.82h0.39V137.25z M124.02,137.36l37.27-51.39l-0.32-0.23l-37.27,51.39L124.02,137.36z
	 M161.19,86.04l60.43-19.77l-0.12-0.37l-60.43,19.77L161.19,86.04z M221.5,54.98l67.77,21.46l0.12-0.37l-67.77-21.46L221.5,54.98z
	 M289.17,76.37l41.23,57.61l0.32-0.23l-41.23-57.6L289.17,76.37z M330.36,204.45h0.39v-70.59h-0.39V204.45z M330.4,204.34
	l-41.23,57.6l0.32,0.23l41.23-57.6L330.4,204.34z M289.27,261.87l-67.77,22.03l0.12,0.37l67.77-22.03L289.27,261.87z M221.62,283.89
	l-67.21-22.03l-0.12,0.37l67.21,22.03L221.62,283.89z M154.51,261.94l-41.79-57.6l-0.32,0.23l41.79,57.6L154.51,261.94z
	 M112.76,133.86h-0.39v70.59h0.39V133.86z M112.72,133.97l41.79-57.6l-0.32-0.23l-41.79,57.6L112.72,133.97z M154.41,76.44
	l67.21-21.46l-0.12-0.37l-67.21,21.46L154.41,76.44z"/>
<path class="st1" d="M221.84,59.31l-8.22,9.17l7.88-2.58l0.06,0.19l0.06-0.19l60.99,19.77l-0.06,0.19l0.16-0.11l32.61,44.96
	l-28.53-51.06L221.84,59.31z M221.56,66.29l-8.46,2.77l-13.78,15.37l22.18-7.24l0.06,0.19l0.06-0.19l51.83,16.74h2.87l1.18,2.99
	l31.75,43.59l-0.16,0.12h0.2v18.19l9.69-21.58l-2.03-3.63l-34.52-47.59L221.56,66.29z M221.56,77.59l-22.77,7.43l-14.46,16.13
	l37.16-12.09l0.06,0.19l0.06-0.19l15.18,4.88h35.38L221.56,77.59z M221.56,89.45l-37.75,12.28l-6.02,6.72l-10.77,6.84l-21.51,29.37
	v49.01l29.29,40.56l46.75,15.21l47.32-15.21l23.87-33.7l1.38-7.92l3.48-7.74v-40.2l-2.95-4.11l1.65,4.2l-9.04,5.92v39.67h-0.2
	l0.16,0.11l-24.85,34.45l-0.16-0.11l0.06,0.19l-40.66,12.99l-0.06-0.19l-0.06,0.19l-40.1-12.99l0.06-0.19l-0.16,0.11l-24.85-34.45
	l0.16-0.11h-0.2v-38.5l-2.9-5.17l5.51-2.36l22.28-30.89l0.16,0.11l-0.06-0.19l33.45-10.84l6.8-8.57h13.86L221.56,89.45z
	 M278.07,98.38l16,40.68l3.89,5.41l-0.16,0.11h0.2v39.39l10.9-24.28v-19L278.07,98.38z M214.41,103.06l-32.83,10.63L159.73,144
	l18.46-7.91l9.89-13.64l0.16,0.12l-0.06-0.19l14.64-4.71L214.41,103.06z M166.11,115.86l-24.64,15.65l-6.69,9.18v56.91l33.24,45.64
	l42.05,13.72l11.76,2.82l3.6-0.33l50.21-16.21l12.68-17.41l4.26-24.43l-23.43,33.08l-0.16-0.11l0.06,0.19l-47.44,15.25l-0.06-0.19
	l-0.06,0.19l-46.88-15.25l0.06-0.19l-0.16,0.11l-29.37-40.66l0.16-0.11h-0.2v-49.13h0.2l-0.16-0.11L166.11,115.86z M202.38,118.21
	l-14.02,4.52l-9.47,13.05l14.47-6.2L202.38,118.21z M140.57,132.09l-10.78,6.85l-1.69,60.43l37.27,46.88l39.93,9.58l-37.45-12.22
	l0.06-0.19l-0.16,0.12l-33.32-45.74l0.16-0.12h-0.2v-57.04h0.2l-0.16-0.12L140.57,132.09z M286.87,150.92l-10.34,6.77v29.25h-0.2
	l0.16,0.12l-19.4,26.74l1.44,5.32l-7.31-1.83l-29.61,9.38l-0.06-0.19l-0.06,0.19l-33.32-10.73l0.06-0.19l-0.16,0.11l-20.9-28.8
	l0.16-0.12h-0.2v-15.97l-10.34-18.44v37.74l24.77,34.35l39.98,12.95l40.54-12.95l24.77-34.35V150.92z M276.14,157.95l-10.34,6.77
	v18.83h-0.2l0.16,0.12l-12.35,16.47l3.56,13.16l19.17-26.43V157.95z M265.41,164.98l-10.9,7.14v7.48h-0.2l0.16,0.11l-4.77,6.72
	l3.57,13.23l12.13-16.17V164.98z M167.54,171.67v15.21l20.82,28.7l33.2,10.69l28.95-9.17l-19.48-4.87l-9.4,3.14l-0.06-0.19
	l-0.06,0.18l-12.12-4.13l-19.95,2.1l-14.8-29.04L167.54,171.67z M254.12,172.38l-6.98,4.57l2.43,8.99l4.54-6.4V172.38z
	 M221.81,209.93l-11.51,1.21l11.26,3.83l8.75-2.92L221.81,209.93z M288.18,226.72l-12.25,16.81l-0.16-0.12l0.06,0.19l-48.61,15.7
	l46.81-4.29l8.39-2.72l1.7-2.35L288.18,226.72z M283.98,250.82l-1.27,1.75l-0.16-0.12l0.06,0.19l-6.8,2.21l7.59-0.7L283.98,250.82z"
	/>
<path class="st2" d="M221.62,65.9l-0.06,0.19l-0.06-0.19l-7.88,2.58l-0.52,0.58l8.46-2.77l60.87,19.73l34.52,47.59l-1.62-2.91
	l-32.61-44.96l-0.16,0.11l0.06-0.19L221.62,65.9z M221.62,77.2l-0.06,0.19l-0.06-0.19l-22.18,7.24l-0.52,0.58l22.77-7.43
	l50.61,16.34h1.28L221.62,77.2z M221.62,89.06l-0.06,0.19l-0.06-0.19l-37.16,12.09l-0.52,0.58l37.75-12.28l13.95,4.49h1.28
	L221.62,89.06z M277.5,96.93l0.57,1.45l30.83,42.32v19l0.39-0.87v-18.19h-0.2l0.16-0.12L277.5,96.93z M214.85,102.51l-33.45,10.84
	l0.06,0.19l-0.16-0.12l-22.28,30.89l0.7-0.3l21.86-30.3l32.83-10.63L214.85,102.51z M167.02,115.29l-0.91,0.58l-20.95,28.61
	l0.16,0.12h-0.2v49.13h0.2l-0.16,0.12l29.37,40.66l0.16-0.12l-0.06,0.19l46.87,15.25l0.06-0.19l0.06,0.19l47.44-15.25l-0.06-0.19
	l0.16,0.11l23.43-33.08l0.16-0.9l-23.87,33.7l-47.32,15.21l-46.75-15.21l-29.29-40.56v-49.01L167.02,115.29z M202.82,117.66
	l-14.64,4.71l0.06,0.19l-0.16-0.12l-9.89,13.64l0.7-0.3l9.47-13.05l14.02-4.51L202.82,117.66z M141.47,131.52l-0.9,0.57l-6.14,8.43
	l0.16,0.12h-0.2v57.04h0.19l-0.16,0.11l33.32,45.74l0.16-0.12l-0.06,0.19l37.45,12.22l4.78,1.15l-42.05-13.72l-33.24-45.64V140.7
	L141.47,131.52z M294.07,139.06l0.58,1.49l2.95,4.11v40.2l0.39-0.87v-39.39h-0.2l0.16-0.11L294.07,139.06z M287.27,150.66
	l-0.39,0.26v39.35l-24.77,34.35l-40.54,12.95l-39.98-12.95l-24.77-34.35v-37.74l-0.39-0.7v38.5h0.2l-0.16,0.12l24.85,34.45
	l0.16-0.12l-0.06,0.19l40.1,12.99l0.06-0.19l0.06,0.19l40.66-12.99l-0.06-0.19l0.16,0.12l24.85-34.45l-0.16-0.12h0.2V150.66z
	 M276.54,157.69l-0.39,0.26v28.93l-19.17,26.43l0.13,0.49l19.4-26.74l-0.16-0.11h0.2V157.69z M265.81,164.72l-0.39,0.26v18.51
	l-12.13,16.17l0.13,0.48l12.35-16.47l-0.16-0.12h0.2V164.72z M167.15,170.97v15.97h0.2l-0.16,0.11l20.9,28.8l0.16-0.12l-0.06,0.19
	l33.32,10.73l0.06-0.19l0.06,0.19l29.61-9.38l-0.73-0.18l-28.95,9.17l-33.2-10.69l-20.82-28.7v-15.21L167.15,170.97z M254.51,172.12
	l-0.39,0.26v7.16l-4.54,6.4l0.13,0.49l4.77-6.72l-0.16-0.11h0.2V172.12z M210.3,211.14l-0.93,0.1l12.12,4.13l0.06-0.18l0.06,0.19
	l9.4-3.13l-0.71-0.18l-8.76,2.92L210.3,211.14z M288.33,225.85l-12.68,17.41l-50.21,16.21l1.78-0.16l48.61-15.7l-0.06-0.19
	l0.16,0.12l12.25-16.81L288.33,225.85z M284.13,249.94l-1.7,2.35l-8.39,2.72l1.77-0.16l6.8-2.21l-0.06-0.19l0.16,0.11l1.27-1.75
	L284.13,249.94z"/>
<path class="st3" d="M274.6,94.72h-35.37l29.82,9.59l-0.06,0.19l0.16-0.12l23.05,32.09l-15.97-40.61l-0.58-0.8L274.6,94.72z
	 M237.95,94.72h-15.92l-5.83,7.35l5.3-1.72l0.06,0.19l0.06-0.19l40.66,12.99l-0.06,0.19l0.16-0.11l24.85,34.45l-0.16,0.11h0.2v1.75
	l8.08-5.29l-2.55-6.48l-23.92-33.3L237.95,94.72z M275.81,94.78l-0.04,0.11l0.06-0.05L275.81,94.78z M221.56,100.74l-5.8,1.88
	l-11.59,14.6l17.33-5.58l0.06,0.19l0.06-0.19l33.88,10.73l-0.06,0.19l0.16-0.12l20.9,28.8l-0.16,0.11h0.2v5.39l10.34-6.77v-1.94
	l-24.77-34.35L221.56,100.74z M221.56,112.04l-17.83,5.74l-9.82,12.37v0l-0.31-0.24l0.15,0.36l-15.77,6.76l-10.45,14.41v18.64
	l7.78,13.87l14.56,28.56l17.73-1.87l-12.65-4.31l0.06-0.19l-0.16,0.12l-16.94-22.59l0.16-0.12h-0.2v-28.24h0.2l-0.16-0.11
	l16.94-23.16l0.16,0.12l-0.06-0.19l26.54-9.03l0.06,0.18l0.06-0.19l27.11,9.04l-0.06,0.19l0.16-0.12l16.94,23.16l-0.16,0.11h0.2
	v8.47l10.34-6.77v-5.58l-20.82-28.7L221.56,112.04z M221.56,123.33l-26.42,8.99l-16.87,23.05v28.11l16.87,22.49l13.4,4.56l13.34-1.4
	l9.83,2.46l16.85-5.62l4.14-5.52l-3.57-13.2l-7.07,9.96l-0.16-0.11l0.06,0.19l-20.33,6.21l-0.06-0.19l-0.06,0.19l-19.77-6.21
	l0.06-0.19l-0.16,0.12l-12.99-17.51l0.16-0.12h-0.2v-20.9h0.2l-0.16-0.12l12.99-17.51l0.16,0.12l-0.06-0.19l19.77-6.21l0.06,0.19
	l0.06-0.19l20.33,6.21l-0.06,0.19l0.16-0.11l12.42,17.51l-0.16,0.11h0.2v12.48l10.9-7.14v-8.66l-16.87-23.05L221.56,123.33z
	 M221.56,135.19l-19.65,6.17L189,158.77v20.77l12.91,17.4l19.65,6.18l20.21-6.18l7.22-10.17l-2.75-10.17l7.88-5.16v-12.67
	l-12.35-17.4L221.56,135.19z M221.56,146.28l0.06-0.19l13.55,4.52l-0.06,0.19l0.16-0.12l8.47,11.29l-0.16,0.12h0.2v14.12h-0.2
	l0.16,0.12l-8.47,11.29l-0.16-0.12l0.06,0.18l-13.55,4.52l-0.06-0.19l-0.06,0.18l-12.99-4.52l0.06-0.18l-0.16,0.12l-8.47-11.29
	l0.16-0.12h-0.2V162.1h0.2l-0.16-0.12l8.47-11.29l0.16,0.12l-0.06-0.19l12.99-4.52L221.56,146.28z M177.29,137.32l-18.45,7.91
	l-2.02,2.81v2.89l10.34,18.44v-18h0.2l-0.16-0.11L177.29,137.32z M158.13,145.53l-3.51,1.5l1.79,3.19v-2.25h0.2l-0.16-0.11
	L158.13,145.53z M221.56,146.49l-12.87,4.48l-8.4,11.19v13.99l8.4,11.19l12.87,4.48l13.43-4.48l8.4-11.19v-13.99l-8.4-11.19
	L221.56,146.49z M221.56,157.58l0.06-0.19l6.78,2.26l-0.06,0.19l0.15-0.12l4.52,5.65l-0.15,0.12h0.2v7.34h-0.2l0.15,0.12l-4.52,5.65
	l-0.15-0.12l0.06,0.19l-6.78,2.26l-0.06-0.19l-0.06,0.19l-6.78-2.26l0.06-0.19l-0.16,0.11l-3.95-5.65l0.16-0.11h-0.2v-7.34h0.2
	l-0.16-0.11l3.95-5.65l0.16,0.11l-0.06-0.19l6.78-2.26L221.56,157.58z M221.56,157.78l-6.65,2.22l-3.88,5.54v7.22l3.88,5.54
	l6.65,2.22l6.66-2.22l4.44-5.55v-7.2l-4.44-5.55L221.56,157.78z M252.82,200.94l-3.99,5.32l-0.16-0.12l0.06,0.19l-16.32,5.44
	l19.52,4.88l3.39-1.07l1.05-1.45L252.82,200.94z M256.51,214.61l-0.91,1.25l-0.16-0.11l0.06,0.19l-2.84,0.9l4.77,1.19L256.51,214.61
	z"/>
<path class="st4" d="M275.79,94.72h-1.19l1.05,0.34l0.59,0.8l-0.4-1.02l-0.06,0.05l0.04-0.11L275.79,94.72z M239.24,94.72h-1.28
	l30.92,9.94l23.92,33.3l-0.58-1.49l-23.05-32.09l-0.16,0.11l0.06-0.19L239.24,94.72z M221.62,100.35l-0.06,0.19l-0.06-0.19
	l-5.3,1.72l-0.44,0.56l5.8-1.88l40.54,12.95l24.77,34.35v1.94l0.39-0.26v-1.75h-0.2l0.16-0.11l-24.85-34.45l-0.16,0.11l0.06-0.19
	L221.62,100.35z M221.62,111.65l-0.06,0.19l-0.06-0.19l-17.33,5.58l-0.44,0.55l17.83-5.74l33.76,10.69l20.82,28.7v5.58l0.39-0.26
	v-5.39h-0.2l0.16-0.12l-20.9-28.8l-0.16,0.11l0.06-0.19L221.62,111.65z M221.62,122.94l-0.06,0.19l-0.06-0.19l-26.54,9.04l0.06,0.18
	l-0.16-0.12l-16.94,23.16l0.16,0.12h-0.2v28.24h0.2l-0.16,0.12l16.94,22.59l0.16-0.12l-0.06,0.18l12.65,4.31l0.93-0.1l-13.4-4.56
	l-16.87-22.49v-28.11l16.87-23.05l26.42-8.99l26.99,9l16.87,23.05v8.66l0.39-0.26v-8.47h-0.19l0.16-0.12l-16.94-23.16l-0.16,0.12
	l0.06-0.18L221.62,122.94z M221.62,134.8l-0.06,0.19l-0.06-0.19l-19.77,6.21l0.06,0.19l-0.16-0.12l-12.99,17.51l0.16,0.12h-0.2v20.9
	h0.2l-0.16,0.12l12.99,17.51l0.16-0.12l-0.06,0.19l19.77,6.21l0.06-0.19l0.06,0.19l20.33-6.21l-0.06-0.19l0.16,0.11l7.07-9.96
	l-0.13-0.49l-7.22,10.17l-20.21,6.18l-19.65-6.18L189,179.54v-20.76l12.91-17.4l19.65-6.18l20.21,6.18l12.35,17.4v12.67l0.39-0.26
	v-12.48h-0.2l0.16-0.11l-12.42-17.51l-0.16,0.11l0.06-0.19L221.62,134.8z M177.99,137.02l-0.7,0.3l-10.1,13.93l0.16,0.12h-0.2v18
	l0.39,0.7v-18.64L177.99,137.02z M158.83,145.23l-0.7,0.3l-1.68,2.33l0.16,0.11h-0.2v2.25l0.39,0.7v-2.89L158.83,145.23z
	 M221.62,146.1l-0.06,0.19l-0.06-0.18l-12.99,4.52l0.06,0.18l-0.16-0.12l-8.47,11.29l0.16,0.12h-0.2v14.12h0.2l-0.16,0.12
	l8.47,11.29l0.16-0.12l-0.06,0.18l12.99,4.52l0.06-0.18l0.06,0.19l13.55-4.52l-0.06-0.19l0.16,0.12l8.47-11.29l-0.16-0.12h0.2V162.1
	h-0.2l0.16-0.12l-8.47-11.29l-0.16,0.12l0.06-0.19L221.62,146.1z M208.69,150.97l12.87-4.48l13.43,4.48l8.4,11.19v13.99l-8.4,11.19
	l-13.43,4.48l-12.87-4.48l-8.4-11.2v-13.99L208.69,150.97z M221.62,157.39l-0.06,0.18l-0.06-0.18l-6.78,2.26l0.06,0.19l-0.16-0.11
	l-3.95,5.65l0.16,0.11h-0.2v7.34h0.2l-0.16,0.11l3.95,5.65l0.16-0.11l-0.06,0.19l6.78,2.26l0.06-0.18l0.06,0.18l6.78-2.26
	l-0.06-0.19l0.15,0.12l4.52-5.65l-0.15-0.12h0.2v-7.34h-0.2l0.15-0.12l-4.52-5.65l-0.15,0.12l0.06-0.19L221.62,157.39z M214.91,160
	l6.65-2.22l6.66,2.22l4.44,5.55v7.2l-4.44,5.55l-6.66,2.22l-6.65-2.22l-3.88-5.54v-7.22L214.91,160z M252.69,200.46l-4.14,5.52
	l-16.85,5.62l0.71,0.18l16.32-5.44l-0.06-0.19l0.16,0.12l3.99-5.32L252.69,200.46z M256.38,214.13l-1.06,1.45l-3.39,1.07l0.73,0.18
	l2.84-0.9l-0.06-0.19l0.16,0.11l0.91-1.25L256.38,214.13z"/>
<path class="st5" d="M276.33,93.93h-2.87l2.39,0.77l-0.02,0.07l0.03,0.07l0.1-0.07l1.57,2.15L276.33,93.93z M272.17,93.93H236.8
	l2.44,0.79h35.37L272.17,93.93z M235.51,93.93h-13.86l-6.8,8.57l1.35-0.44l5.83-7.35h15.92L235.51,93.93z M276.24,95.86l15.97,40.61
	l1.86,2.59l-16-40.68L276.24,95.86z M215.76,102.62l-1.35,0.44l-11.59,14.6l1.35-0.43L215.76,102.62z M203.73,117.78l-1.35,0.43
	l-9.02,11.37l-14.47,6.2l-0.9,1.24l15.77-6.76l-0.15-0.36l0.31,0.24L203.73,117.78z M178.19,136.09L159.73,144l-0.89,1.24
	l18.45-7.91L178.19,136.09z M292.79,137.95l2.55,6.48l-8.07,5.29v0.94l9.04-5.92l-1.65-4.2L292.79,137.95z M159.03,144.3l-5.51,2.36
	l2.9,5.17v-1.6l-1.79-3.19l3.51-1.5L159.03,144.3z M286.87,149.98l-10.34,6.77v0.94l10.34-6.77V149.98z M156.81,150.93v1.6
	l10.34,18.44v-1.6L156.81,150.93z M276.15,157.01l-10.34,6.77v0.94l10.34-6.77V157.01z M265.41,164.04l-10.9,7.14v0.94l10.9-7.14
	V164.04z M167.54,170.07v1.6l7.08,12.63l14.8,29.04l19.95-2.1l-1.77-0.6l-17.73,1.87l-14.56-28.56L167.54,170.07z M254.12,171.44
	l-7.88,5.16l2.75,10.17l0.59-0.83l-2.43-8.99l6.98-4.57V171.44z M249.71,186.43l-0.59,0.83l3.57,13.2l0.6-0.8L249.71,186.43z
	 M253.41,200.15l-0.6,0.8l3.56,13.18l0.59-0.82L253.41,200.15z M221.87,209.14l-13.33,1.4l1.77,0.6l11.51-1.21l8.5,2.12l1.39-0.46
	L221.87,209.14z M232.41,211.77l-1.39,0.46l19.48,4.87l1.43-0.45L232.41,211.77z M257.1,213.8l-0.59,0.82l0.92,3.41l-4.77-1.19
	l-1.43,0.45l7.31,1.83L257.1,213.8z"/>
<path class="st6" d="M273.45,93.93h-1.28l2.43,0.78h1.19l0.02,0.06l0.02-0.07L273.45,93.93z M236.8,93.93h-1.28l2.44,0.78h1.28
	L236.8,93.93z M275.93,94.77l-0.1,0.07l0.4,1.02l1.83,2.52l-0.57-1.45L275.93,94.77z M216.2,102.07l-1.35,0.44l-0.44,0.55l1.35-0.44
	L216.2,102.07z M204.17,117.23l-1.35,0.43l-0.44,0.55l1.35-0.43L204.17,117.23z M178.89,135.78l-0.7,0.3l-0.9,1.24l0.7-0.3
	L178.89,135.78z M292.21,136.47l0.58,1.49l1.86,2.59l-0.58-1.49L292.21,136.47z M159.73,144l-0.7,0.3l-0.89,1.24l0.7-0.3L159.73,144
	z M287.27,149.73l-0.39,0.26v0.94l0.39-0.26V149.73z M156.42,150.23v1.6l0.39,0.7v-1.6L156.42,150.23z M276.54,156.76l-0.39,0.26
	v0.94l0.39-0.26V156.76z M265.81,163.79l-0.39,0.26v0.94l0.39-0.26V163.79z M167.15,169.37v1.6l0.39,0.7v-1.6L167.15,169.37z
	 M254.51,171.19l-0.39,0.26v0.94l0.39-0.26V171.19z M249.57,185.94l-0.59,0.83l0.13,0.49l0.59-0.83L249.57,185.94z M253.28,199.66
	l-0.6,0.8l0.13,0.48l0.6-0.8L253.28,199.66z M208.53,210.54l-0.93,0.1l1.77,0.6l0.93-0.1L208.53,210.54z M231.7,211.59l-1.39,0.46
	l0.71,0.18l1.39-0.46L231.7,211.59z M256.97,213.31l-0.59,0.82l0.13,0.49l0.59-0.82L256.97,213.31z M251.93,216.65l-1.43,0.45
	l0.73,0.18l1.43-0.45L251.93,216.65z"/>
<text transform="matrix(1 0 0 1 198.1233 48.6448)" class="st7 st8 st9">Barcelona</text>
<text transform="matrix(1 0 0 1 294.0403 76.2493)" class="st7 st8 st9">Bilbao</text>
<text transform="matrix(1 0 0 1 334.9543 135.8015)" class="st7 st8 st9">Madrid</text>
<text transform="matrix(1 0 0 1 334.9543 210.6629)" class="st7 st8 st9">Murcia</text>
<text transform="matrix(1 0 0 1 294.0403 272.2239)" class="st7 st8 st9">Sevilla</text>
<g>
	<text transform="matrix(1 0 0 1 204.3352 295.9348)" class="st7 st8 st9">Málaga</text>
</g>
<text transform="matrix(1 0 0 1 123.8582 266.5569)" class="st7 st8 st9">Palm</text>
<text transform="matrix(1 0 0 1 146.6257 266.5569)" class="st7 st8 st9">a</text>
<text transform="matrix(1 0 0 1 69.6028 209.6785)" class="st7 st8 st9">Valencia</text>
<g>
	<text transform="matrix(1 0 0 1 63.9573 134.9871)" class="st7 st8 st9">Zaragoza</text>
	<text transform="matrix(1 0 0 1 63.9573 75.1785)" class="st7 st8 st9">Las Palmas de GC</text>
</g>
<text transform="matrix(1 0 0 1 205.5066 58.0134)" class="st8 st10">100</text>
<text transform="matrix(1 0 0 1 207.9397 80.7268)" class="st8 st10">80</text>
<text transform="matrix(1 0 0 1 207.9397 104.49)" class="st8 st10">60</text>
<text transform="matrix(1 0 0 1 207.9397 127.6409)" class="st8 st10">4</text>
<text transform="matrix(1 0 0 1 212.8064 127.6409)" class="st8 st10">0</text>
<text transform="matrix(1 0 0 1 207.9397 151.3611)" class="st8 st10">20</text>
<text transform="matrix(1 0 0 1 214.2942 173.6013)" class="st8 st10">0</text>
<g>
	<text transform="matrix(1 0 0 1 88.5588 12.3914)" class="st7 st8 st11">Porcentaje de población con acc</text>
	<text transform="matrix(1 0 0 1 334.6487 12.3914)" class="st7 st8 st11">eso</text>
</g>
<text transform="matrix(1 0 0 1 115.8982 32.2634)" class="st7 st8 st11"> a espacios públicos abiertos</text>
<text transform="matrix(1 0 0 1 362.1975 272.3059)" class="st12 st13">Acceso a</text>
<text transform="matrix(1 0 0 1 394.5569 272.3059)" class="st12 st13">cualqier EPA</text>
<text transform="matrix(1 0 0 1 362.1975 286.427)" class="st12 st13">Acceso a</text>
<text transform="matrix(1 0 0 1 394.1331 286.427)" class="st12 st13">EPA grandes</text>
<g>
	<text transform="matrix(1 0 0 1 444.8596 293.7581)" class="st12 st14"> </text>
</g>
<rect x="339.86" y="265.77" class="st15" width="15.62" height="8.85"/>
<rect x="339.86" y="280.22" class="st16" width="15.62" height="8.85"/>
</svg>
