<?xml version="1.0" encoding="utf-8"?>
<!-- Generator: Adobe Illustrator 24.0.2, SVG Export Plug-In . SVG Version: 6.00 Build 0)  -->
<svg version="1.1" id="Capa_1" xmlns="http://www.w3.org/2000/svg" xmlns:xlink="http://www.w3.org/1999/xlink" x="0px" y="0px"
	 viewBox="0 0 262.08 128" style="enable-background:new 0 0 262.08 128;" xml:space="preserve">
<style type="text/css">
	.st0{fill:none;stroke:#B9D6DD;stroke-width:1.07;stroke-linejoin:round;stroke-miterlimit:10;}
	.st1{fill:none;stroke:#74C6C8;stroke-width:2;stroke-linecap:round;stroke-linejoin:round;stroke-miterlimit:10;}
	.st2{fill:#5A5A5B;}
	.st3{font-family:'Helvetica-Light';}
	.st4{font-size:6.0121px;}
	.st5{fill:#020203;}
	.st6{font-size:4.1793px;}
	.st7{clip-path:url(#SVGID_2_);}
	.st8{clip-path:url(#SVGID_4_);}
	.st9{font-size:7.4486px;}
	.st10{fill:none;stroke:#B9D6DD;stroke-width:0.5;stroke-linejoin:round;stroke-miterlimit:10;}
	.st11{clip-path:url(#SVGID_6_);}
	.st12{clip-path:url(#SVGID_8_);}
	.st13{clip-path:url(#SVGID_10_);}
	.st14{fill:none;stroke:#9D9BC9;stroke-width:2;stroke-linecap:round;stroke-linejoin:round;stroke-miterlimit:10;}
</style>
<path class="st0" d="M174.85,41.19l26.24-8.51 M158.71,63.48l16.14-22.28 M158.71,91.04V63.48 M174.85,113.32l-16.14-22.28
	 M201.09,121.96l-26.24-8.64 M227.33,113.32l-26.24,8.64 M243.59,91.04l-16.26,22.28 M243.59,63.48v27.56 M227.33,41.19l16.26,22.28
	 M201.09,32.68l26.24,8.51 M181.45,50.13l19.64-6.3 M169.28,66.99l12.17-16.86 M169.28,87.67V66.99 M181.45,104.38l-12.17-16.71
	 M201.09,110.68l-19.64-6.3 M220.88,104.38l-19.79,6.3 M233.05,87.67l-12.17,16.71 M233.05,66.99v20.67 M220.88,50.13l12.17,16.86
	 M201.09,43.83l19.79,6.3 M188.04,59.22l13.05-4.25 M179.98,70.37l8.06-11.14 M179.98,84.15V70.37 M188.04,95.29l-8.06-11.14
	 M201.09,99.54l-13.05-4.25 M214.28,95.29l-13.19,4.25 M222.35,84.15l-8.06,11.14 M222.35,70.37v13.78 M214.28,59.22l8.06,11.14
	 M201.09,54.97l13.19,4.25 M194.64,68.17l6.45-2.05 M190.53,73.89l4.1-5.72 M190.53,80.78v-6.89 M194.64,86.35l-4.1-5.57
	 M201.09,88.4l-6.45-2.05 M207.69,86.35l-6.6,2.05 M211.79,80.78l-4.1,5.57 M211.79,73.89v6.89 M207.69,68.17l4.1,5.72
	 M201.09,66.11l6.6,2.05"/>
<polygon class="st1" points="185.48,55.78 201.16,40.38 220.8,50.07 234.12,66.63 219.48,83.19 221.24,104.88 201.16,107.8 
	184.46,100.34 171.56,86.86 169.93,67.07 "/>
<text transform="matrix(1 0 0 1 191.9531 79.2246)" class="st2 st3 st4">0</text>
<text transform="matrix(1 0 0 1 188.8867 68.0781)" class="st2 st3 st4">20</text>
<text transform="matrix(1 0 0 1 188.8867 56.9316)" class="st2 st3 st4">40</text>
<text transform="matrix(1 0 0 1 188.8867 45.7852)" class="st2 st3 st4">60</text>
<text transform="matrix(1 0 0 1 188.8867 34.6445)" class="st2 st3 st4">80</text>
<text transform="matrix(1 0 0 1 192.5859 28.0483)" class="st5 st3 st6">Barcelona</text>
<text transform="matrix(1 0 0 1 228.4404 41.2461)" class="st5 st3 st6">Bilbao</text>
<text transform="matrix(1 0 0 1 245.3076 64.416)" class="st5 st3 st6">Madrid</text>
<text transform="matrix(1 0 0 1 245.3076 93.1572)" class="st5 st3 st6">Murcia</text>
<text transform="matrix(1 0 0 1 228.4404 116.3262)" class="st5 st3 st6">Sevilla</text>
<g>
	<defs>
		<rect id="SVGID_1_" x="0.13" width="261.95" height="128"/>
	</defs>
	<clipPath id="SVGID_2_">
		<use xlink:href="#SVGID_1_"  style="overflow:visible;"/>
	</clipPath>
	<g class="st7">
		<text transform="matrix(1 0 0 1 194.5645 127.1172)" class="st5 st3 st6">Málaga</text>
	</g>
</g>
<text transform="matrix(1 0 0 1 160.9707 116.3223)" class="st5 st3 st6">Palma</text>
<text transform="matrix(1 0 0 1 140.751 93.124)" class="st5 st3 st6">Valenci</text>
<text transform="matrix(1 0 0 1 154.4463 93.124)" class="st5 st3 st6">a</text>
<text transform="matrix(1 0 0 1 137.6836 64.6675)" class="st5 st3 st6">Zaragoz</text>
<text transform="matrix(1 0 0 1 153.2344 64.6675)" class="st5 st3 st6">a</text>
<text transform="matrix(1 0 0 1 140.7461 40.2061)" class="st5 st3 st6">Las Palmas de GC</text>
<g>
	<defs>
		<rect id="SVGID_3_" x="0.13" width="261.95" height="128"/>
	</defs>
	<clipPath id="SVGID_4_">
		<use xlink:href="#SVGID_3_"  style="overflow:visible;"/>
	</clipPath>
	<g class="st8">
		<text transform="matrix(1 0 0 1 139.8145 5.3633)" class="st5 st3 st9">Porcentaje de población con acceso</text>
	</g>
</g>
<text transform="matrix(1 0 0 1 153.0693 14.3013)" class="st5 st3 st9">a otros comercios cotidianos</text>
<path class="st0" d="M174.85,41.19l26.24-8.51 M158.71,63.48l16.14-22.28 M158.71,91.04V63.48 M174.85,113.32l-16.14-22.28
	 M201.09,121.96l-26.24-8.64 M227.33,113.32l-26.24,8.64 M243.59,91.04l-16.26,22.28 M243.59,63.48v27.56 M227.33,41.19l16.26,22.28
	 M201.09,32.68l26.24,8.51 M181.45,50.13l19.64-6.3 M169.28,66.99l12.17-16.86 M169.28,87.67V66.99 M181.45,104.38l-12.17-16.71
	 M201.09,110.68l-19.64-6.3 M220.88,104.38l-19.79,6.3 M233.05,87.67l-12.17,16.71 M233.05,66.99v20.67 M220.88,50.13l12.17,16.86
	 M201.09,43.83l19.79,6.3 M188.04,59.22l13.05-4.25 M179.98,70.37l8.06-11.14 M179.98,84.15V70.37 M188.04,95.29l-8.06-11.14
	 M201.09,99.54l-13.05-4.25 M214.28,95.29l-13.19,4.25 M222.35,84.15l-8.06,11.14 M222.35,70.37v13.78 M214.28,59.22l8.06,11.14
	 M201.09,54.97l13.19,4.25 M194.64,68.17l6.45-2.05 M190.53,73.89l4.1-5.72 M190.53,80.78v-6.89 M194.64,86.35l-4.1-5.57
	 M201.09,88.4l-6.45-2.05 M207.69,86.35l-6.6,2.05 M211.79,80.78l-4.1,5.57 M211.79,73.89v6.89 M207.69,68.17l4.1,5.72
	 M201.09,66.11l6.6,2.05"/>
<path class="st10" d="M177.35,44.63l23.74-7.7 M162.75,64.79l14.6-20.16 M162.75,89.73V64.79 M177.35,109.89l-14.6-20.16
	 M201.1,117.71l-23.74-7.81 M224.84,109.89l-23.74,7.81 M239.55,89.73l-14.71,20.16 M239.55,64.79v24.94 M224.84,44.63l14.71,20.16
	 M201.1,36.93l23.74,7.7 M185.2,55.31l15.9-5.1 M175.35,68.96l9.85-13.64 M175.35,85.69V68.96 M185.2,99.21l-9.85-13.53
	 M201.1,104.32l-15.9-5.1 M217.12,99.21l-16.02,5.1 M226.97,85.69l-9.85,13.53 M226.97,68.96v16.73 M217.12,55.31l9.85,13.64
	 M201.1,50.21l16.02,5.1 M191.28,63.68l9.83-3.2 M185.2,72.07l6.07-8.39 M185.2,82.45V72.07 M191.28,90.85l-6.07-8.39 M201.11,94.05
	l-9.83-3.2 M211.05,90.85l-9.94,3.2 M217.12,82.45l-6.08,8.39 M217.12,72.07v10.38 M211.05,63.68l6.08,8.39 M201.11,60.48l9.94,3.2"
	/>
<path class="st0" d="M37.16,41.19l26.24-8.51 M21.02,63.48l16.14-22.28 M21.02,91.04V63.48 M37.16,113.32L21.02,91.04 M63.41,121.96
	l-26.24-8.64 M89.65,113.32l-26.24,8.64 M105.9,91.04l-16.26,22.28 M105.9,63.48v27.56 M89.65,41.19l16.26,22.28 M63.41,32.68
	l26.24,8.51 M43.76,50.13l19.64-6.3 M31.59,66.99l12.17-16.86 M31.59,87.67V66.99 M43.76,104.38L31.59,87.67 M63.41,110.68
	l-19.64-6.3 M83.2,104.38l-19.79,6.3 M95.37,87.67L83.2,104.38 M95.37,66.99v20.67 M83.2,50.13l12.17,16.86 M63.41,43.83l19.79,6.3
	 M50.36,59.22l13.05-4.25 M42.29,70.37l8.06-11.14 M42.29,84.15V70.37 M50.36,95.29l-8.06-11.14 M63.41,99.54l-13.05-4.25
	 M76.6,95.29l-13.19,4.25 M84.66,84.15L76.6,95.29 M84.66,70.37v13.78 M76.6,59.22l8.06,11.14 M63.41,54.97l13.19,4.25 M56.95,68.17
	l6.45-2.05 M52.85,73.89l4.1-5.72 M52.85,80.78v-6.89 M56.95,86.35l-4.1-5.57 M63.41,88.4l-6.45-2.05 M70,86.35l-6.6,2.05
	 M74.11,80.78L70,86.35 M74.11,73.89v6.89 M70,68.17l4.1,5.72 M63.41,66.11l6.6,2.05"/>
<text transform="matrix(1 0 0 1 54.2676 79.2246)" class="st2 st3 st4">0</text>
<text transform="matrix(1 0 0 1 51.2021 68.0781)" class="st2 st3 st4">20</text>
<text transform="matrix(1 0 0 1 51.2021 56.9316)" class="st2 st3 st4">40</text>
<text transform="matrix(1 0 0 1 51.2021 45.7852)" class="st2 st3 st4">60</text>
<text transform="matrix(1 0 0 1 51.2021 34.6445)" class="st2 st3 st4">80</text>
<text transform="matrix(1 0 0 1 54.9014 28.0483)" class="st5 st3 st6">Barcelona</text>
<text transform="matrix(1 0 0 1 90.7549 41.2461)" class="st5 st3 st6">Bilbao</text>
<text transform="matrix(1 0 0 1 107.623 64.416)" class="st5 st3 st6">Madrid</text>
<text transform="matrix(1 0 0 1 107.623 93.1572)" class="st5 st3 st6">Murcia</text>
<text transform="matrix(1 0 0 1 90.7549 116.3262)" class="st5 st3 st6">Sevilla</text>
<g>
	<defs>
		<rect id="SVGID_5_" x="0.13" width="261.95" height="128"/>
	</defs>
	<clipPath id="SVGID_6_">
		<use xlink:href="#SVGID_5_"  style="overflow:visible;"/>
	</clipPath>
	<g class="st11">
		<text transform="matrix(1 0 0 1 56.8799 127.1172)" class="st5 st3 st6">Málaga</text>
	</g>
</g>
<text transform="matrix(1 0 0 1 23.2852 116.3223)" class="st5 st3 st6">Palma</text>
<text transform="matrix(1 0 0 1 3.0654 93.124)" class="st5 st3 st6">Valenci</text>
<text transform="matrix(1 0 0 1 16.7607 93.124)" class="st5 st3 st6">a</text>
<g>
	<defs>
		<rect id="SVGID_7_" x="0.13" width="261.95" height="128"/>
	</defs>
	<clipPath id="SVGID_8_">
		<use xlink:href="#SVGID_7_"  style="overflow:visible;"/>
	</clipPath>
	<g class="st12">
		<text transform="matrix(1 0 0 1 0 64.667)" class="st5 st3 st6">Zaragoza</text>
	</g>
</g>
<text transform="matrix(1 0 0 1 4.1602 37.5474)" class="st5 st3 st6">Las Palmas de GC</text>
<g>
	<defs>
		<rect id="SVGID_9_" x="0.13" width="261.95" height="128"/>
	</defs>
	<clipPath id="SVGID_10_">
		<use xlink:href="#SVGID_9_"  style="overflow:visible;"/>
	</clipPath>
	<g class="st13">
		<text transform="matrix(1 0 0 1 14.3447 5.3633)" class="st5 st3 st9">Porcentaje de población con </text>
	</g>
</g>
<text transform="matrix(1 0 0 1 7.3057 14.3013)" class="st5 st3 st9">acceso a tiendas de alimentación</text>
<polygon class="st14" points="48.33,57.16 63.42,35.75 88.18,43.67 98.13,66.53 84.52,84.7 86.43,109.47 63.42,109.18 39.53,110.49 
	26.77,89.69 26.93,65.95 "/>
<path class="st10" d="M39.83,44.57l23.74-7.7 M25.22,64.73l14.6-20.16 M25.22,89.67V64.73 M39.83,109.83l-14.6-20.16 M63.57,117.64
	l-23.74-7.81 M87.31,109.83l-23.74,7.81 M102.02,89.67l-14.71,20.16 M102.02,64.73v24.94 M87.31,44.57l14.71,20.16 M63.57,36.87
	l23.74,7.7 M47.68,55.25l15.9-5.1 M37.83,68.9l9.85-13.64 M37.83,85.63V68.9 M47.68,99.15l-9.85-13.53 M63.58,104.26l-15.9-5.1
	 M79.59,99.15l-16.02,5.1 M89.44,85.63l-9.85,13.53 M89.44,68.9v16.73 M79.59,55.25l9.85,13.64 M63.58,50.15l16.02,5.1 M53.75,63.62
	l9.83-3.2 M47.68,72.01l6.07-8.39 M47.68,82.39V72.01 M53.75,90.79l-6.07-8.39 M63.58,93.99l-9.83-3.2 M73.52,90.79l-9.94,3.2
	 M79.59,82.39l-6.08,8.39 M79.59,72.01v10.38 M73.52,63.62l6.08,8.39 M63.58,60.41l9.94,3.2"/>
</svg>
