<?xml version="1.0" encoding="utf-8"?>
<!-- Generator: Adobe Illustrator 24.0.2, SVG Export Plug-In . SVG Version: 6.00 Build 0)  -->
<svg version="1.1" id="Capa_1" xmlns="http://www.w3.org/2000/svg" xmlns:xlink="http://www.w3.org/1999/xlink" x="0px" y="0px"
	 viewBox="0 0 482.05 269.23" style="enable-background:new 0 0 482.05 269.23;" xml:space="preserve">
<style type="text/css">
	.st0{font-family:'Helvetica-Light';}
	.st1{font-size:7.1349px;}
	.st2{fill:#B6DDEC;}
	.st3{fill:#84CCD8;}
	.st4{fill:#9ED4E6;}
	.st5{fill:#6AC3DA;}
	.st6{font-size:8.4134px;}
	.st7{font-size:4.3299px;}
	.st8{fill:#020203;}
	.st9{font-size:13.52px;}
	.st10{enable-background:new    ;}
</style>
<g>
	<g>
		<g>
			<text transform="matrix(1 0 0 1 385.0215 4.9222)" class="st0 st1">Cualquier parada de OSM</text>
		</g>
	</g>
</g>
<text transform="matrix(1 0 0 1 442.7822 22.3001)" class="st0 st1">Frecuencia </text>
<text transform="matrix(1 0 0 1 441.8193 30.8621)" class="st0 st1">&lt;30 minuto</text>
<g>
	<g>
		<g>
			<text transform="matrix(1 0 0 1 477.8594 30.8617)" class="st0 st1">s</text>
		</g>
	</g>
</g>
<text transform="matrix(1 0 0 1 357.8955 21.4852)" class="st0 st1">Acceso cualquier</text>
<text transform="matrix(1 0 0 1 374.3555 30.0472)" class="st0 st1">parad</text>
<text transform="matrix(1 0 0 1 393.3838 30.0472)" class="st0 st1">a</text>
<text transform="matrix(1 0 0 1 388.6396 43.575)" class="st0 st1">Frecuencia &lt;20 minuto</text>
<text transform="matrix(1 0 0 1 462.3643 43.575)" class="st0 st1">s</text>
<polygon points="413.24,24.03 413.54,24.33 427.05,10.83 440.24,24.03 427.05,37.22 413.54,23.72 413.24,24.03 413.54,24.33 
	413.24,24.03 412.93,24.33 427.05,38.45 441.47,24.03 427.05,9.61 412.63,24.03 412.93,24.33 "/>
<polygon class="st2" points="45.33,72.97 2.31,114.73 45.33,151.79 84.74,114.73 "/>
<polygon class="st2" points="141.82,73.51 100.06,114.73 141.82,153.6 181.95,114.73 "/>
<polygon class="st2" points="238.65,74.6 197.25,114.73 238.65,153.24 278.06,114.73 "/>
<polygon class="st2" points="335.39,103.98 306.83,114.64 335.39,123.86 345.51,114.64 "/>
<polygon class="st2" points="435.22,81.56 395.45,114.64 435.22,145.92 467.4,114.64 "/>
<polygon class="st2" points="0.43,223.93 38.94,246.89 66.05,223.93 38.94,187.05 "/>
<polygon class="st2" points="141.82,183.62 100.96,223.93 141.82,230.26 148.68,223.93 "/>
<polygon class="st2" points="235.3,195.19 201.14,223.93 235.3,242.37 255.19,223.93 "/>
<polygon class="st2" points="335.26,191.39 299.47,223.93 335.26,252.5 366.54,223.93 "/>
<rect x="-9.09" y="91.99" transform="matrix(0.7071 -0.7071 0.7071 0.7071 -58.6136 43.1159)" class="st3" width="63.66" height="0.65"/>
<rect x="22.41" y="105.5" transform="matrix(0.7071 -0.7071 0.7071 0.7071 -90.4489 56.2991)" class="st3" width="0.65" height="63.66"/>
<polyline class="st3" points="90.03,114.59 45.01,159.61 45.47,160.07 90.49,115.05 "/>
<polyline class="st3" points="45.01,70.04 90.03,115.05 90.49,114.59 45.47,69.58 "/>
<polyline class="st3" points="9.5,115.05 45.47,79.08 45.01,78.62 9.04,114.59 "/>
<polyline class="st3" points="45.47,150.57 9.5,114.59 9.04,115.05 45.01,151.03 "/>
<polyline class="st3" points="80.99,114.59 45.01,150.57 45.47,151.03 81.45,115.05 "/>
<polyline class="st3" points="45.01,79.08 80.99,115.05 81.45,114.59 45.47,78.62 "/>
<polyline class="st3" points="18.54,115.05 45.47,87.93 45.01,87.48 18.08,114.59 "/>
<polyline class="st3" points="45.47,141.53 18.54,114.59 18.08,115.05 45.01,141.99 "/>
<polyline class="st3" points="71.95,114.59 45.01,141.53 45.47,141.99 72.41,115.05 "/>
<polyline class="st3" points="45.01,87.93 71.95,115.05 72.41,114.59 45.47,87.48 "/>
<polyline class="st3" points="27.4,115.05 45.47,96.97 45.01,96.51 26.94,114.59 "/>
<polyline class="st3" points="45.47,132.49 27.39,114.59 26.94,115.05 45.01,132.95 "/>
<polyline class="st3" points="62.91,114.59 45.01,132.49 45.47,132.95 63.37,115.05 "/>
<polyline class="st3" points="45.01,96.97 62.91,115.05 63.37,114.59 45.47,96.52 "/>
<polyline class="st3" points="36.43,115.05 45.47,106.01 45.01,105.55 35.97,114.59 "/>
<polyline class="st3" points="45.47,123.63 36.43,114.59 35.97,115.05 45.01,124.09 "/>
<polyline class="st3" points="54.05,114.59 45.01,123.63 45.47,124.09 54.51,115.05 "/>
<polyline class="st3" points="45.01,106.01 54.05,115.05 54.51,114.59 45.47,105.55 "/>
<polyline class="st3" points="96.94,115.05 141.95,70.04 141.49,69.58 96.48,114.59 "/>
<polyline class="st3" points="141.95,159.61 96.94,114.59 96.48,115.05 141.49,160.06 "/>
<polyline class="st3" points="186.51,114.59 141.5,159.61 141.95,160.07 186.97,115.05 "/>
<polyline class="st3" points="141.49,70.04 186.51,115.05 186.97,114.59 141.95,69.58 "/>
<polyline class="st3" points="105.98,115.05 141.95,79.08 141.5,78.62 105.52,114.59 "/>
<polyline class="st3" points="141.95,150.57 105.98,114.59 105.52,115.05 141.49,151.03 "/>
<polyline class="st3" points="177.47,114.59 141.49,150.57 141.95,151.03 177.93,115.05 "/>
<polyline class="st3" points="141.49,79.08 177.47,115.05 177.93,114.59 141.95,78.62 "/>
<polyline class="st3" points="115.02,115.05 141.95,87.93 141.49,87.48 114.56,114.59 "/>
<polyline class="st3" points="141.95,141.53 115.02,114.59 114.56,115.05 141.49,141.99 "/>
<polyline class="st3" points="168.43,114.59 141.49,141.53 141.95,141.99 168.89,115.05 "/>
<polyline class="st3" points="141.49,87.93 168.43,115.05 168.89,114.59 141.96,87.48 "/>
<polyline class="st3" points="123.88,115.05 141.95,96.97 141.49,96.51 123.42,114.59 "/>
<polyline class="st3" points="141.95,132.49 123.88,114.59 123.42,115.05 141.5,132.95 "/>
<polyline class="st3" points="159.39,114.59 141.5,132.49 141.95,132.95 159.85,115.05 "/>
<polyline class="st3" points="141.49,96.97 159.39,115.05 159.85,114.59 141.95,96.52 "/>
<polyline class="st3" points="132.92,115.05 141.95,106.01 141.5,105.55 132.46,114.59 "/>
<polyline class="st3" points="141.95,123.63 132.91,114.59 132.46,115.05 141.49,124.09 "/>
<polyline class="st3" points="150.53,114.59 141.49,123.63 141.95,124.09 150.99,115.05 "/>
<polyline class="st3" points="141.49,106.01 150.53,115.05 150.99,114.59 141.95,105.55 "/>
<polyline class="st3" points="193.77,115.05 238.79,70.04 238.33,69.58 193.31,114.59 "/>
<polyline class="st3" points="238.79,159.61 193.77,114.59 193.31,115.05 238.33,160.06 "/>
<polyline class="st3" points="283.34,114.59 238.33,159.61 238.79,160.07 283.8,115.05 "/>
<polyline class="st3" points="238.33,70.04 283.34,115.05 283.8,114.59 238.79,69.58 "/>
<polyline class="st3" points="202.81,115.05 238.79,79.08 238.33,78.62 202.35,114.59 "/>
<polyline class="st3" points="238.79,150.57 202.81,114.59 202.35,115.05 238.33,151.03 "/>
<polyline class="st3" points="274.3,114.59 238.33,150.57 238.79,151.03 274.76,115.05 "/>
<polyline class="st3" points="238.33,79.08 274.3,115.05 274.76,114.59 238.79,78.62 "/>
<polyline class="st3" points="211.85,115.05 238.79,87.93 238.33,87.48 211.39,114.59 "/>
<polyline class="st3" points="238.79,141.53 211.85,114.59 211.39,115.05 238.33,141.99 "/>
<polyline class="st3" points="265.26,114.59 238.33,141.53 238.79,141.99 265.72,115.05 "/>
<polyline class="st3" points="238.33,87.93 265.26,115.05 265.72,114.59 238.79,87.48 "/>
<polyline class="st3" points="220.71,115.05 238.79,96.97 238.33,96.51 220.25,114.59 "/>
<polyline class="st3" points="238.79,132.49 220.71,114.59 220.25,115.05 238.33,132.95 "/>
<polyline class="st3" points="256.22,114.59 238.33,132.49 238.79,132.95 256.68,115.05 "/>
<polyline class="st3" points="238.33,96.97 256.22,115.05 256.68,114.59 238.79,96.52 "/>
<polyline class="st3" points="229.75,115.05 238.79,106.01 238.33,105.55 229.29,114.59 "/>
<polyline class="st3" points="238.79,123.63 229.75,114.59 229.29,115.05 238.33,124.09 "/>
<polyline class="st3" points="247.37,114.59 238.33,123.63 238.79,124.09 247.82,115.05 "/>
<polyline class="st3" points="238.33,106.01 247.37,115.05 247.83,114.59 238.79,105.55 "/>
<polyline class="st3" points="290.61,115.05 335.62,70.04 335.16,69.58 290.15,114.59 "/>
<polyline class="st3" points="335.62,159.61 290.6,114.59 290.15,115.05 335.16,160.06 "/>
<polyline class="st3" points="380.17,114.59 335.16,159.61 335.62,160.07 380.63,115.05 "/>
<polyline class="st3" points="335.16,70.04 380.17,115.05 380.63,114.59 335.62,69.58 "/>
<polyline class="st3" points="299.64,115.05 335.62,79.08 335.16,78.62 299.18,114.59 "/>
<polyline class="st3" points="335.62,150.57 299.64,114.59 299.18,115.05 335.16,151.03 "/>
<polyline class="st3" points="371.13,114.59 335.16,150.57 335.62,151.03 371.59,115.05 "/>
<polyline class="st3" points="335.16,79.08 371.13,115.05 371.59,114.59 335.62,78.62 "/>
<polyline class="st3" points="308.68,115.05 335.62,87.93 335.16,87.48 308.22,114.59 "/>
<polyline class="st3" points="335.62,141.53 308.68,114.59 308.22,115.05 335.16,141.99 "/>
<polyline class="st3" points="362.1,114.59 335.16,141.53 335.62,141.99 362.55,115.05 "/>
<polyline class="st3" points="335.16,87.93 362.09,115.05 362.56,114.59 335.62,87.48 "/>
<polyline class="st3" points="317.54,115.05 335.62,96.97 335.16,96.51 317.08,114.59 "/>
<polyline class="st3" points="335.62,132.49 317.54,114.59 317.08,115.05 335.16,132.95 "/>
<polyline class="st3" points="353.06,114.59 335.16,132.49 335.62,132.95 353.52,115.05 "/>
<polyline class="st3" points="335.16,96.97 353.06,115.05 353.52,114.59 335.62,96.52 "/>
<polyline class="st3" points="326.58,115.05 335.62,106.01 335.16,105.55 326.12,114.59 "/>
<polyline class="st3" points="335.62,123.63 326.58,114.59 326.12,115.05 335.16,124.09 "/>
<polyline class="st3" points="344.2,114.59 335.16,123.63 335.62,124.09 344.66,115.05 "/>
<polyline class="st3" points="335.16,106.01 344.2,115.05 344.66,114.59 335.62,105.55 "/>
<polyline class="st3" points="390.17,115.05 435.18,70.04 434.72,69.58 389.71,114.59 "/>
<polyline class="st3" points="435.18,159.61 390.17,114.59 389.71,115.05 434.72,160.06 "/>
<polyline class="st3" points="479.73,114.59 434.72,159.61 435.18,160.07 480.19,115.05 "/>
<polyline class="st3" points="434.72,70.04 479.73,115.05 480.19,114.59 435.18,69.58 "/>
<polyline class="st3" points="399.2,115.05 435.18,79.08 434.72,78.62 398.75,114.59 "/>
<polyline class="st3" points="435.18,150.57 399.2,114.59 398.75,115.05 434.72,151.03 "/>
<polyline class="st3" points="470.69,114.59 434.72,150.57 435.18,151.03 471.15,115.05 "/>
<polyline class="st3" points="434.72,79.08 470.69,115.05 471.15,114.59 435.18,78.62 "/>
<polyline class="st3" points="408.24,115.05 435.18,87.93 434.72,87.48 407.78,114.59 "/>
<polyline class="st3" points="435.18,141.53 408.24,114.59 407.78,115.05 434.72,141.99 "/>
<polyline class="st3" points="461.66,114.59 434.72,141.53 435.18,141.99 462.11,115.05 "/>
<polyline class="st3" points="434.72,87.93 461.66,115.05 462.12,114.59 435.18,87.48 "/>
<polyline class="st3" points="417.1,115.05 435.18,96.97 434.72,96.51 416.64,114.59 "/>
<polyline class="st3" points="435.18,132.49 417.1,114.59 416.64,115.05 434.72,132.95 "/>
<polyline class="st3" points="452.62,114.59 434.72,132.49 435.18,132.95 453.08,115.05 "/>
<polyline class="st3" points="434.72,96.97 452.62,115.05 453.08,114.59 435.18,96.52 "/>
<polyline class="st3" points="426.14,115.05 435.18,106.01 434.72,105.55 425.68,114.59 "/>
<polyline class="st3" points="435.18,123.63 426.14,114.59 425.68,115.05 434.72,124.09 "/>
<polyline class="st3" points="443.76,114.59 434.72,123.63 435.18,124.09 444.22,115.05 "/>
<polyline class="st3" points="434.72,106.01 443.76,115.05 444.22,114.59 435.18,105.55 "/>
<polyline class="st3" points="390.17,224.25 435.18,179.24 434.72,178.78 389.71,223.79 "/>
<rect x="412.11" y="214.69" transform="matrix(0.7071 -0.7071 0.7071 0.7071 -53.5183 363.8436)" class="st3" width="0.65" height="63.66"/>
<rect x="425.62" y="246.19" transform="matrix(0.7071 -0.7071 0.7071 0.7071 -40.3298 395.6681)" class="st3" width="63.66" height="0.65"/>
<polyline class="st3" points="434.72,179.24 479.73,224.25 480.19,223.79 435.18,178.78 "/>
<polyline class="st3" points="399.2,224.25 435.18,188.28 434.72,187.82 398.75,223.79 "/>
<rect x="416.63" y="216.57" transform="matrix(0.7071 -0.7071 0.7071 0.7071 -49.0016 365.718)" class="st3" width="0.65" height="50.88"/>
<polyline class="st3" points="470.69,223.79 434.72,259.77 435.18,260.23 471.15,224.25 "/>
<polyline class="st3" points="434.72,188.28 470.69,224.25 471.15,223.79 435.18,187.82 "/>
<rect x="402.36" y="210.12" transform="matrix(0.7047 -0.7095 0.7095 0.7047 -24.8525 361.1802)" class="st3" width="38.22" height="0.65"/>
<rect x="421.15" y="218.43" transform="matrix(0.7071 -0.7071 0.7071 0.7071 -44.4751 367.5823)" class="st3" width="0.65" height="38.09"/>
<polyline class="st3" points="461.66,223.79 434.72,250.73 435.18,251.19 462.11,224.25 "/>
<rect x="448.1" y="191.38" transform="matrix(0.7095 -0.7047 0.7047 0.7095 -18.07 377.1516)" class="st3" width="0.65" height="38.22"/>
<rect x="413.13" y="214.66" transform="matrix(0.7071 -0.7071 0.7071 0.7071 -27.2699 364.1315)" class="st3" width="25.57" height="0.65"/>
<rect x="425.6" y="220.27" transform="matrix(0.7036 -0.7106 0.7106 0.7036 -39.32 371.7187)" class="st3" width="0.65" height="25.44"/>
<rect x="431.24" y="232.65" transform="matrix(0.7071 -0.7071 0.7071 0.7071 -34.7263 382.1181)" class="st3" width="25.31" height="0.65"/>
<rect x="443.58" y="202.29" transform="matrix(0.7107 -0.7035 0.7035 0.7107 -22.8368 374.4886)" class="st3" width="0.65" height="25.44"/>
<rect x="424.04" y="219.18" transform="matrix(0.7071 -0.7071 0.7071 0.7071 -29.1454 368.6501)" class="st3" width="12.78" height="0.65"/>
<rect x="430.1" y="222.15" transform="matrix(0.7071 -0.7071 0.7071 0.7071 -35.5318 371.2959)" class="st3" width="0.65" height="12.78"/>
<rect x="433.08" y="228.22" transform="matrix(0.7071 -0.7071 0.7071 0.7071 -32.8885 377.6895)" class="st3" width="12.78" height="0.65"/>
<rect x="439.13" y="213.11" transform="matrix(0.7071 -0.7071 0.7071 0.7071 -26.4984 375.0358)" class="st3" width="0.65" height="12.78"/>
<polyline class="st3" points="291.68,224.25 336.69,179.24 336.23,178.78 291.22,223.79 "/>
<rect x="313.63" y="214.7" transform="matrix(0.7071 -0.7071 0.7071 0.7071 -82.3704 294.2057)" class="st3" width="0.65" height="63.66"/>
<rect x="327.13" y="246.2" transform="matrix(0.7071 -0.7071 0.7071 0.7071 -69.179 326.0289)" class="st3" width="63.66" height="0.65"/>
<polyline class="st3" points="336.24,179.24 381.25,224.25 381.71,223.79 336.69,178.78 "/>
<polyline class="st3" points="300.72,224.25 336.69,188.28 336.24,187.82 300.26,223.79 "/>
<polyline class="st3" points="336.69,259.77 300.72,223.79 300.26,224.25 336.24,260.23 "/>
<polyline class="st3" points="372.21,223.79 336.23,259.77 336.69,260.23 372.67,224.25 "/>
<polyline class="st3" points="336.24,188.28 372.21,224.25 372.67,223.79 336.69,187.82 "/>
<polyline class="st3" points="309.76,224.25 336.7,197.14 336.23,196.68 309.3,223.79 "/>
<polyline class="st3" points="336.69,250.73 309.76,223.79 309.3,224.25 336.24,251.19 "/>
<polyline class="st3" points="363.17,223.79 336.24,250.73 336.69,251.19 363.63,224.25 "/>
<polyline class="st3" points="336.23,197.13 363.17,224.25 363.63,223.79 336.7,196.68 "/>
<polyline class="st3" points="318.62,224.25 336.69,206.17 336.23,205.71 318.16,223.79 "/>
<polyline class="st3" points="336.69,241.69 318.62,223.79 318.16,224.25 336.24,242.15 "/>
<polyline class="st3" points="354.13,223.79 336.24,241.69 336.69,242.15 354.59,224.25 "/>
<polyline class="st3" points="336.23,206.17 354.13,224.25 354.59,223.79 336.7,205.72 "/>
<polyline class="st3" points="327.66,224.25 336.69,215.21 336.23,214.75 327.2,223.79 "/>
<polyline class="st3" points="336.69,232.83 327.66,223.79 327.2,224.25 336.24,233.29 "/>
<polyline class="st3" points="345.27,223.79 336.23,232.83 336.69,233.29 345.73,224.25 "/>
<polyline class="st3" points="336.24,215.21 345.27,224.25 345.73,223.79 336.69,214.75 "/>
<polyline class="st3" points="194.95,224.25 239.96,179.24 239.5,178.78 194.49,223.79 "/>
<rect x="216.9" y="214.7" transform="matrix(0.7071 -0.7071 0.7071 0.7071 -110.7005 225.8068)" class="st3" width="0.65" height="63.66"/>
<rect x="230.4" y="246.2" transform="matrix(0.7071 -0.7071 0.7071 0.7071 -97.5137 257.6329)" class="st3" width="63.66" height="0.65"/>
<polyline class="st3" points="239.5,179.24 284.52,224.25 284.98,223.79 239.96,178.78 "/>
<polyline class="st3" points="203.99,224.25 239.96,188.28 239.5,187.82 203.53,223.79 "/>
<polyline class="st3" points="239.96,259.77 203.99,223.79 203.53,224.25 239.5,260.23 "/>
<polyline class="st3" points="275.48,223.79 239.5,259.77 239.96,260.23 275.94,224.25 "/>
<polyline class="st3" points="239.5,188.28 275.48,224.25 275.94,223.79 239.96,187.82 "/>
<polyline class="st3" points="213.03,224.25 239.96,197.14 239.5,196.68 212.57,223.79 "/>
<polyline class="st3" points="239.96,250.73 213.03,223.79 212.57,224.25 239.5,251.19 "/>
<polyline class="st3" points="266.44,223.79 239.5,250.73 239.96,251.19 266.9,224.25 "/>
<polyline class="st3" points="239.5,197.13 266.44,224.25 266.9,223.79 239.96,196.68 "/>
<polyline class="st3" points="221.89,224.25 239.96,206.17 239.5,205.71 221.43,223.79 "/>
<polyline class="st3" points="239.96,241.69 221.88,223.79 221.43,224.25 239.5,242.15 "/>
<polyline class="st3" points="257.4,223.79 239.5,241.69 239.96,242.15 257.86,224.25 "/>
<polyline class="st3" points="239.5,206.17 257.4,224.25 257.86,223.79 239.96,205.72 "/>
<polyline class="st3" points="230.92,224.25 239.96,215.21 239.5,214.75 230.47,223.79 "/>
<polyline class="st3" points="239.96,232.83 230.92,223.79 230.46,224.25 239.5,233.29 "/>
<polyline class="st3" points="248.54,223.79 239.5,232.83 239.96,233.29 249,224.25 "/>
<polyline class="st3" points="239.5,215.21 248.54,224.25 249,223.79 239.96,214.75 "/>
<polyline class="st3" points="96.94,224.25 141.95,179.24 141.49,178.78 96.48,223.79 "/>
<rect x="118.89" y="214.7" transform="matrix(0.7071 -0.7071 0.7071 0.7071 -139.4067 156.504)" class="st3" width="0.65" height="63.66"/>
<rect x="132.4" y="246.2" transform="matrix(0.7071 -0.7071 0.7071 0.7071 -126.2204 188.3306)" class="st3" width="63.66" height="0.65"/>
<polyline class="st3" points="141.49,179.24 186.51,224.25 186.97,223.79 141.95,178.78 "/>
<polyline class="st3" points="105.98,224.25 141.95,188.28 141.5,187.82 105.52,223.79 "/>
<polyline class="st3" points="141.95,259.77 105.98,223.79 105.52,224.25 141.49,260.23 "/>
<polyline class="st3" points="177.47,223.79 141.49,259.77 141.95,260.23 177.93,224.25 "/>
<polyline class="st3" points="141.49,188.28 177.47,224.25 177.93,223.79 141.95,187.82 "/>
<polyline class="st3" points="115.02,224.25 141.95,197.14 141.49,196.68 114.56,223.79 "/>
<polyline class="st3" points="141.95,250.73 115.02,223.79 114.56,224.25 141.49,251.19 "/>
<polyline class="st3" points="168.43,223.79 141.49,250.73 141.95,251.19 168.89,224.25 "/>
<polyline class="st3" points="141.49,197.13 168.43,224.25 168.89,223.79 141.96,196.68 "/>
<polyline class="st3" points="123.88,224.25 141.95,206.17 141.49,205.71 123.42,223.79 "/>
<polyline class="st3" points="141.95,241.69 123.88,223.79 123.42,224.25 141.5,242.15 "/>
<polyline class="st3" points="159.39,223.79 141.5,241.69 141.95,242.15 159.85,224.25 "/>
<polyline class="st3" points="141.49,206.17 159.39,224.25 159.85,223.79 141.95,205.72 "/>
<polyline class="st3" points="132.92,224.25 141.95,215.21 141.5,214.75 132.46,223.79 "/>
<polyline class="st3" points="141.95,232.83 132.91,223.79 132.46,224.25 141.49,233.29 "/>
<polyline class="st3" points="150.53,223.79 141.49,232.83 141.95,233.29 150.99,224.25 "/>
<polyline class="st3" points="141.49,215.21 150.53,224.25 150.99,223.79 141.95,214.75 "/>
<rect x="-9.09" y="201.19" transform="matrix(0.7071 -0.7071 0.7071 0.7071 -135.8302 75.0988)" class="st3" width="63.66" height="0.65"/>
<rect x="22.41" y="214.7" transform="matrix(0.7071 -0.7071 0.7071 0.7071 -167.6639 88.2821)" class="st3" width="0.65" height="63.66"/>
<rect x="35.92" y="246.2" transform="matrix(0.7071 -0.7071 0.7071 0.7071 -154.4771 120.1083)" class="st3" width="63.66" height="0.65"/>
<polyline class="st3" points="45.01,179.24 90.03,224.25 90.49,223.79 45.47,178.78 "/>
<polyline class="st3" points="9.5,224.25 45.47,188.28 45.01,187.82 9.04,223.79 "/>
<polyline class="st3" points="45.47,259.77 9.5,223.79 9.04,224.25 45.01,260.23 "/>
<polyline class="st3" points="80.99,223.79 45.01,259.77 45.47,260.23 81.45,224.25 "/>
<polyline class="st3" points="45.01,188.28 80.99,224.25 81.45,223.79 45.47,187.82 "/>
<polyline class="st3" points="18.54,224.25 45.47,197.14 45.01,196.68 18.08,223.79 "/>
<polyline class="st3" points="45.47,250.73 18.54,223.79 18.08,224.25 45.01,251.19 "/>
<polyline class="st3" points="71.95,223.79 45.01,250.73 45.47,251.19 72.41,224.25 "/>
<polyline class="st3" points="45.01,197.13 71.95,224.25 72.41,223.79 45.47,196.68 "/>
<polyline class="st3" points="27.4,224.25 45.47,206.17 45.01,205.71 26.94,223.79 "/>
<polyline class="st3" points="45.47,241.69 27.39,223.79 26.94,224.25 45.01,242.15 "/>
<polyline class="st3" points="62.91,223.79 45.01,241.69 45.47,242.15 63.37,224.25 "/>
<polyline class="st3" points="45.01,206.17 62.91,224.25 63.37,223.79 45.47,205.72 "/>
<polyline class="st3" points="36.43,224.25 45.47,215.21 45.01,214.75 35.97,223.79 "/>
<polyline class="st3" points="45.47,232.83 36.43,223.79 35.97,224.25 45.01,233.29 "/>
<polyline class="st3" points="54.05,223.79 45.01,232.83 45.47,233.29 54.51,224.25 "/>
<polyline class="st3" points="45.01,215.21 54.05,224.25 54.51,223.79 45.47,214.75 "/>
<path class="st4" d="M438.8,195.49l-2.49,2.33l3.87,3.9L438.8,195.49z M435.85,198.27l-26.38,24.76l-0.99,0.99l11.35,11.35
	l10.26,2.19l-13.44-13.31l0.23-0.23l-0.23-0.23l18.08-18.08l0.23,0.23l0.23-0.23l7.6,7.68l-2.33-10.49L435.85,198.27z
	 M434.95,206.41l-17.62,17.62l13.93,13.79l6.05,1.29l9.15-9.15l-3.41-15.36L434.95,206.41z M434.95,214.98l0.23-0.23l9.04,9.04
	l-0.23,0.23l0.23,0.23l-9.04,9.04l-0.23-0.23l-0.23,0.23l-9.04-9.04l0.23-0.23l-0.23-0.23l9.04-9.04L434.95,214.98z M407.96,224.43
	l-4.19,3.93l4.56,4.56l10.32,2.2L407.96,224.43z M403.3,228.81l-2.64,2.48l6.51,1.39L403.3,228.81z M446.63,230.7l-8.56,8.56
	l0.74,0.16l7.95-8.14L446.63,230.7z"/>
<polygon class="st5" points="403.77,228.36 403.3,228.81 407.17,232.67 408.33,232.92 "/>
<polygon class="st5" points="408.44,223.99 408.47,224.02 409.46,223.03 "/>
<polygon class="st5" points="408.44,223.99 407.96,224.43 418.66,235.12 419.82,235.37 408.47,224.02 "/>
<polygon class="st5" points="436.32,197.82 435.84,198.27 440.45,202.91 440.19,201.72 "/>
<polygon class="st5" points="434.72,205.72 416.64,223.79 416.87,224.02 417.1,223.79 417.33,224.02 434.95,206.41 434.72,206.17 
	434.95,205.95 "/>
<polygon class="st5" points="417.1,223.79 416.87,224.02 416.64,224.25 430.09,237.56 431.26,237.81 417.33,224.02 "/>
<polygon class="st5" points="446.46,229.95 437.31,239.1 438.07,239.26 446.63,230.7 "/>
<polygon class="st5" points="435.18,205.72 434.95,205.95 434.72,206.17 434.95,206.41 443.05,214.59 442.78,213.4 "/>
<rect x="428.88" y="217.96" transform="matrix(0.7071 -0.7071 0.7071 0.7071 -31.0201 373.1681)" class="st4" width="12.13" height="12.13"/>
<polygon class="st5" points="434.72,214.75 425.68,223.79 425.91,224.02 426.14,223.79 426.37,224.02 434.95,215.44 434.72,215.21 
	434.95,214.98 "/>
<polygon class="st5" points="426.14,223.79 425.91,224.02 425.68,224.25 434.72,233.29 434.95,233.06 434.72,232.83 434.95,232.6 
	426.37,224.02 "/>
<polygon class="st5" points="443.99,224.02 443.76,224.25 443.53,224.02 434.95,232.6 434.72,232.83 434.95,233.06 435.18,233.29 
	444.22,224.25 "/>
<polygon class="st5" points="435.18,214.75 434.95,214.98 434.72,215.21 434.95,215.44 443.53,224.02 443.76,224.25 443.99,224.02 
	444.22,223.79 "/>
<text transform="matrix(1 0 0 1 225.2393 64.7782)" class="st0 st6">Madrid</text>
<text transform="matrix(1 0 0 1 322.5322 64.7782)" class="st0 st6">Murcia</text>
<text transform="matrix(1 0 0 1 422.7939 64.7782)" class="st0 st6">Sevilla</text>
<text transform="matrix(1 0 0 1 31.2178 175.221)" class="st0 st6">Málaga</text>
<text transform="matrix(1 0 0 1 130.0415 175.221)" class="st0 st6">Palma</text>
<text transform="matrix(1 0 0 1 225.29 174.5731)" class="st0 st6">Valencia   </text>
<text transform="matrix(1 0 0 1 318.4678 174.5731)" class="st0 st6">Zaragoza</text>
<text transform="matrix(1 0 0 1 399.9521 174.5731)" class="st0 st6">Las Palmas de GC</text>
<text transform="matrix(1 0 0 1 32.5894 72.1864)" class="st0 st7">100%</text>
<text transform="matrix(1 0 0 1 34.1528 80.8851)" class="st0 st7">80%</text>
<text transform="matrix(1 0 0 1 34.1528 89.8221)" class="st0 st7">60%</text>
<text transform="matrix(1 0 0 1 34.1528 98.993)" class="st0 st7">40%</text>
<text transform="matrix(1 0 0 1 34.1528 107.8128)" class="st0 st7">20%</text>
<text transform="matrix(1 0 0 1 129.458 72.1864)" class="st0 st7">100%</text>
<text transform="matrix(1 0 0 1 131.021 80.8851)" class="st0 st7">80%</text>
<text transform="matrix(1 0 0 1 131.021 89.8221)" class="st0 st7">60%</text>
<text transform="matrix(1 0 0 1 131.021 98.993)" class="st0 st7">40%</text>
<text transform="matrix(1 0 0 1 131.021 107.8128)" class="st0 st7">20%</text>
<text transform="matrix(1 0 0 1 226.3262 72.1864)" class="st0 st7">100%</text>
<text transform="matrix(1 0 0 1 227.8896 80.8851)" class="st0 st7">80%</text>
<text transform="matrix(1 0 0 1 227.8896 89.8221)" class="st0 st7">60%</text>
<text transform="matrix(1 0 0 1 227.8896 98.993)" class="st0 st7">40%</text>
<text transform="matrix(1 0 0 1 227.8896 107.8128)" class="st0 st7">20%</text>
<text transform="matrix(1 0 0 1 323.1953 72.1864)" class="st0 st7">100%</text>
<text transform="matrix(1 0 0 1 324.7578 80.8851)" class="st0 st7">80%</text>
<text transform="matrix(1 0 0 1 324.7578 89.8221)" class="st0 st7">60%</text>
<text transform="matrix(1 0 0 1 324.7578 98.993)" class="st0 st7">40%</text>
<text transform="matrix(1 0 0 1 324.7578 107.8128)" class="st0 st7">20%</text>
<text transform="matrix(1 0 0 1 423.0078 72.1864)" class="st0 st7">100%</text>
<text transform="matrix(1 0 0 1 424.5713 80.8851)" class="st0 st7">80%</text>
<text transform="matrix(1 0 0 1 424.5713 89.8221)" class="st0 st7">60%</text>
<text transform="matrix(1 0 0 1 424.5713 98.993)" class="st0 st7">40%</text>
<text transform="matrix(1 0 0 1 424.5713 107.8128)" class="st0 st7">20%</text>
<text transform="matrix(1 0 0 1 423.0078 181.4603)" class="st0 st7">100%</text>
<text transform="matrix(1 0 0 1 424.5713 190.159)" class="st0 st7">80%</text>
<text transform="matrix(1 0 0 1 424.5713 199.0956)" class="st0 st7">60%</text>
<text transform="matrix(1 0 0 1 424.5713 208.2664)" class="st0 st7">40%</text>
<text transform="matrix(1 0 0 1 424.5713 217.0868)" class="st0 st7">20%</text>
<text transform="matrix(1 0 0 1 325.1436 181.4598)" class="st0 st7">100%</text>
<text transform="matrix(1 0 0 1 326.707 190.159)" class="st0 st7">80%</text>
<text transform="matrix(1 0 0 1 326.707 199.0956)" class="st0 st7">60%</text>
<text transform="matrix(1 0 0 1 326.707 208.2664)" class="st0 st7">40%</text>
<text transform="matrix(1 0 0 1 326.707 217.0868)" class="st0 st7">20%</text>
<text transform="matrix(1 0 0 1 228.3096 181.4598)" class="st0 st7">100%</text>
<text transform="matrix(1 0 0 1 229.873 190.159)" class="st0 st7">80%</text>
<text transform="matrix(1 0 0 1 229.873 199.0956)" class="st0 st7">60%</text>
<text transform="matrix(1 0 0 1 229.873 208.2664)" class="st0 st7">40%</text>
<text transform="matrix(1 0 0 1 229.873 217.0868)" class="st0 st7">20%</text>
<text transform="matrix(1 0 0 1 130.4927 181.4598)" class="st0 st7">100%</text>
<text transform="matrix(1 0 0 1 132.0557 190.159)" class="st0 st7">80%</text>
<text transform="matrix(1 0 0 1 132.0557 199.0956)" class="st0 st7">60%</text>
<text transform="matrix(1 0 0 1 132.0557 208.2664)" class="st0 st7">40%</text>
<text transform="matrix(1 0 0 1 132.0557 217.0868)" class="st0 st7">20%</text>
<text transform="matrix(1 0 0 1 33.9839 181.4598)" class="st0 st7">100%</text>
<text transform="matrix(1 0 0 1 35.5469 190.159)" class="st0 st7">80%</text>
<text transform="matrix(1 0 0 1 35.5469 199.0956)" class="st0 st7">60%</text>
<text transform="matrix(1 0 0 1 35.5469 208.2664)" class="st0 st7">40%</text>
<text transform="matrix(1 0 0 1 35.5469 217.0868)" class="st0 st7">20%</text>
<text transform="matrix(1 0 0 1 26.0679 67.367)" class="st0 st6">Barcelon</text>
<text transform="matrix(1 0 0 1 59.7554 67.367)" class="st0 st6">a</text>
<text transform="matrix(1 0 0 1 129.8052 65.5413)" class="st0 st6">Bilbao</text>
<g>
	<g>
		<g>
			<text transform="matrix(1 0 0 1 125.4561 13.7035)" class="st8 st0 st9">Porcentaje de población con acceso </text>
		</g>
	</g>
</g>
<g class="st10">
	<path class="st8" d="M145.07,25.84c0.15-0.02,0.34-0.04,0.55-0.08c0.21-0.04,0.39-0.09,0.52-0.15c0.14-0.06,0.22-0.17,0.25-0.32
		c0.03-0.15,0.05-0.29,0.05-0.41c0-0.41-0.13-0.75-0.4-1.02c-0.27-0.27-0.71-0.4-1.35-0.4c-0.28,0-0.54,0.03-0.77,0.07
		c-0.23,0.05-0.44,0.14-0.62,0.26c-0.18,0.12-0.32,0.28-0.43,0.49s-0.19,0.46-0.22,0.76h-0.82c0.03-0.41,0.12-0.77,0.28-1.06
		c0.16-0.29,0.37-0.53,0.63-0.72s0.55-0.32,0.89-0.41c0.34-0.08,0.7-0.13,1.07-0.13c0.35,0,0.68,0.04,0.99,0.11
		c0.31,0.08,0.58,0.2,0.81,0.37c0.23,0.17,0.41,0.39,0.54,0.67c0.13,0.28,0.2,0.62,0.2,1.03v3.81c0,0.32,0.06,0.52,0.17,0.6
		c0.11,0.09,0.34,0.07,0.68-0.06v0.63c-0.06,0.02-0.16,0.04-0.28,0.08s-0.24,0.05-0.36,0.05c-0.13,0-0.25-0.01-0.37-0.04
		c-0.14-0.02-0.24-0.06-0.32-0.13c-0.08-0.07-0.15-0.15-0.2-0.24c-0.05-0.09-0.08-0.2-0.1-0.31c-0.02-0.11-0.03-0.23-0.03-0.36
		c-0.34,0.38-0.73,0.67-1.18,0.87c-0.44,0.2-0.92,0.3-1.43,0.3c-0.31,0-0.6-0.04-0.89-0.12c-0.28-0.08-0.53-0.21-0.75-0.38
		c-0.22-0.17-0.39-0.38-0.51-0.63c-0.13-0.25-0.19-0.54-0.19-0.89c0-1.19,0.82-1.89,2.45-2.11L145.07,25.84z M146.44,26.25
		c-0.34,0.14-0.69,0.24-1.04,0.28s-0.7,0.08-1.05,0.11c-0.62,0.04-1.11,0.18-1.45,0.42c-0.35,0.23-0.52,0.59-0.52,1.07
		c0,0.22,0.04,0.4,0.13,0.56c0.09,0.16,0.2,0.29,0.34,0.39s0.3,0.18,0.49,0.23c0.18,0.05,0.37,0.07,0.56,0.07
		c0.32,0,0.64-0.04,0.95-0.12s0.58-0.21,0.82-0.37s0.43-0.38,0.57-0.64s0.22-0.56,0.22-0.91V26.25z"/>
	<path class="st8" d="M154.04,32.69h-0.81v-9.76h0.81v1.23h0.03c0.12-0.22,0.27-0.43,0.45-0.61c0.18-0.18,0.39-0.33,0.61-0.45
		c0.22-0.12,0.45-0.21,0.68-0.27c0.23-0.06,0.46-0.09,0.69-0.09c0.57,0,1.05,0.09,1.45,0.28c0.4,0.19,0.72,0.45,0.98,0.78
		s0.44,0.72,0.56,1.17c0.12,0.45,0.18,0.93,0.18,1.45c0,0.49-0.06,0.96-0.19,1.41c-0.13,0.45-0.32,0.85-0.57,1.18
		s-0.58,0.61-0.97,0.81c-0.39,0.2-0.85,0.3-1.39,0.3c-0.5,0-0.97-0.11-1.43-0.33s-0.81-0.55-1.07-0.98V32.69z M154.04,26.45
		c0,0.4,0.05,0.77,0.16,1.13c0.11,0.36,0.26,0.67,0.47,0.93c0.2,0.27,0.45,0.48,0.74,0.64c0.29,0.16,0.62,0.24,0.99,0.24
		c0.41,0,0.78-0.08,1.09-0.25s0.57-0.39,0.76-0.68c0.2-0.29,0.34-0.62,0.43-1.01c0.09-0.38,0.13-0.8,0.11-1.24
		c0-0.44-0.06-0.83-0.18-1.17c-0.12-0.34-0.29-0.62-0.51-0.86s-0.47-0.41-0.76-0.53c-0.29-0.12-0.6-0.18-0.95-0.18
		c-0.38,0-0.72,0.08-1.01,0.23s-0.55,0.36-0.74,0.63c-0.2,0.27-0.35,0.58-0.45,0.95C154.09,25.63,154.04,26.03,154.04,26.45z"/>
	<path class="st8" d="M164.61,25.84c0.15-0.02,0.34-0.04,0.55-0.08c0.21-0.04,0.39-0.09,0.52-0.15c0.14-0.06,0.22-0.17,0.25-0.32
		c0.03-0.15,0.05-0.29,0.05-0.41c0-0.41-0.13-0.75-0.4-1.02c-0.27-0.27-0.71-0.4-1.35-0.4c-0.28,0-0.54,0.03-0.77,0.07
		c-0.23,0.05-0.44,0.14-0.62,0.26c-0.18,0.12-0.32,0.28-0.43,0.49s-0.19,0.46-0.22,0.76h-0.82c0.03-0.41,0.12-0.77,0.28-1.06
		c0.16-0.29,0.37-0.53,0.63-0.72s0.55-0.32,0.89-0.41c0.34-0.08,0.7-0.13,1.07-0.13c0.35,0,0.68,0.04,0.99,0.11
		c0.31,0.08,0.58,0.2,0.81,0.37c0.23,0.17,0.41,0.39,0.54,0.67c0.13,0.28,0.2,0.62,0.2,1.03v3.81c0,0.32,0.06,0.52,0.17,0.6
		c0.11,0.09,0.34,0.07,0.68-0.06v0.63c-0.06,0.02-0.16,0.04-0.28,0.08s-0.24,0.05-0.36,0.05c-0.13,0-0.25-0.01-0.37-0.04
		c-0.14-0.02-0.24-0.06-0.32-0.13c-0.08-0.07-0.15-0.15-0.2-0.24c-0.05-0.09-0.08-0.2-0.1-0.31c-0.02-0.11-0.03-0.23-0.03-0.36
		c-0.34,0.38-0.73,0.67-1.18,0.87c-0.44,0.2-0.92,0.3-1.43,0.3c-0.31,0-0.6-0.04-0.89-0.12c-0.28-0.08-0.53-0.21-0.75-0.38
		c-0.22-0.17-0.39-0.38-0.51-0.63c-0.13-0.25-0.19-0.54-0.19-0.89c0-1.19,0.82-1.89,2.45-2.11L164.61,25.84z M165.98,26.25
		c-0.34,0.14-0.69,0.24-1.04,0.28s-0.7,0.08-1.05,0.11c-0.62,0.04-1.11,0.18-1.45,0.42c-0.35,0.23-0.52,0.59-0.52,1.07
		c0,0.22,0.04,0.4,0.13,0.56c0.09,0.16,0.2,0.29,0.34,0.39s0.3,0.18,0.49,0.23c0.18,0.05,0.37,0.07,0.56,0.07
		c0.32,0,0.64-0.04,0.95-0.12s0.58-0.21,0.82-0.37s0.43-0.38,0.57-0.64s0.22-0.56,0.22-0.91V26.25z"/>
	<path class="st8" d="M169.76,29.93h-0.81v-7h0.81v1.31h0.03c0.23-0.56,0.52-0.95,0.87-1.17s0.83-0.33,1.41-0.33v0.88
		c-0.46-0.01-0.84,0.06-1.14,0.22s-0.53,0.36-0.71,0.62s-0.3,0.57-0.36,0.93c-0.07,0.36-0.1,0.73-0.1,1.12V29.93z"/>
	<path class="st8" d="M176.63,25.84c0.15-0.02,0.34-0.04,0.55-0.08c0.21-0.04,0.39-0.09,0.52-0.15c0.14-0.06,0.22-0.17,0.25-0.32
		c0.03-0.15,0.05-0.29,0.05-0.41c0-0.41-0.13-0.75-0.4-1.02c-0.27-0.27-0.71-0.4-1.35-0.4c-0.28,0-0.54,0.03-0.77,0.07
		c-0.23,0.05-0.44,0.14-0.62,0.26c-0.18,0.12-0.32,0.28-0.43,0.49s-0.19,0.46-0.22,0.76h-0.82c0.03-0.41,0.12-0.77,0.28-1.06
		c0.16-0.29,0.37-0.53,0.63-0.72s0.55-0.32,0.89-0.41c0.34-0.08,0.7-0.13,1.07-0.13c0.35,0,0.68,0.04,0.99,0.11
		c0.31,0.08,0.58,0.2,0.81,0.37c0.23,0.17,0.41,0.39,0.54,0.67c0.13,0.28,0.2,0.62,0.2,1.03v3.81c0,0.32,0.06,0.52,0.17,0.6
		c0.11,0.09,0.34,0.07,0.68-0.06v0.63c-0.06,0.02-0.16,0.04-0.28,0.08s-0.24,0.05-0.36,0.05c-0.13,0-0.25-0.01-0.37-0.04
		c-0.14-0.02-0.24-0.06-0.32-0.13c-0.08-0.07-0.15-0.15-0.2-0.24c-0.05-0.09-0.08-0.2-0.1-0.31c-0.02-0.11-0.03-0.23-0.03-0.36
		c-0.34,0.38-0.73,0.67-1.18,0.87c-0.44,0.2-0.92,0.3-1.43,0.3c-0.31,0-0.6-0.04-0.89-0.12c-0.28-0.08-0.53-0.21-0.75-0.38
		c-0.22-0.17-0.39-0.38-0.51-0.63c-0.13-0.25-0.19-0.54-0.19-0.89c0-1.19,0.82-1.89,2.45-2.11L176.63,25.84z M178,26.25
		c-0.34,0.14-0.69,0.24-1.04,0.28s-0.7,0.08-1.05,0.11c-0.62,0.04-1.11,0.18-1.45,0.42c-0.35,0.23-0.52,0.59-0.52,1.07
		c0,0.22,0.04,0.4,0.13,0.56c0.09,0.16,0.2,0.29,0.34,0.39s0.3,0.18,0.49,0.23c0.18,0.05,0.37,0.07,0.56,0.07
		c0.32,0,0.64-0.04,0.95-0.12s0.58-0.21,0.82-0.37s0.43-0.38,0.57-0.64S178,27.7,178,27.35V26.25z"/>
	<path class="st8" d="M186.34,20.19h0.81v9.73h-0.81V28.7h-0.03c-0.12,0.23-0.27,0.44-0.45,0.62s-0.39,0.32-0.61,0.44
		s-0.45,0.21-0.68,0.27c-0.23,0.06-0.46,0.09-0.69,0.09c-0.57,0-1.05-0.09-1.45-0.28s-0.72-0.45-0.98-0.78s-0.44-0.72-0.56-1.17
		c-0.12-0.45-0.18-0.93-0.18-1.45c0-0.49,0.06-0.96,0.19-1.41c0.13-0.45,0.32-0.84,0.57-1.18s0.58-0.61,0.97-0.81
		c0.39-0.2,0.85-0.3,1.39-0.3c0.5,0,0.97,0.11,1.43,0.33s0.81,0.55,1.07,0.98V20.19z M186.34,26.4c0-0.4-0.05-0.77-0.16-1.13
		c-0.11-0.36-0.26-0.67-0.47-0.93c-0.2-0.27-0.45-0.48-0.74-0.63c-0.29-0.16-0.62-0.24-0.99-0.24c-0.42,0-0.79,0.08-1.1,0.25
		c-0.31,0.17-0.56,0.39-0.76,0.68c-0.2,0.29-0.34,0.62-0.43,1.01c-0.09,0.38-0.13,0.8-0.11,1.24c0,0.44,0.06,0.83,0.18,1.17
		c0.12,0.34,0.29,0.62,0.51,0.86c0.22,0.24,0.47,0.41,0.76,0.53c0.29,0.12,0.6,0.18,0.95,0.18c0.38,0,0.72-0.08,1.01-0.23
		s0.55-0.36,0.74-0.63s0.35-0.58,0.45-0.95C186.29,27.22,186.34,26.82,186.34,26.4z"/>
	<path class="st8" d="M192.41,25.84c0.15-0.02,0.34-0.04,0.55-0.08c0.21-0.04,0.39-0.09,0.52-0.15c0.14-0.06,0.22-0.17,0.25-0.32
		c0.03-0.15,0.05-0.29,0.05-0.41c0-0.41-0.13-0.75-0.4-1.02c-0.27-0.27-0.71-0.4-1.35-0.4c-0.28,0-0.54,0.03-0.77,0.07
		c-0.23,0.05-0.44,0.14-0.62,0.26c-0.18,0.12-0.32,0.28-0.43,0.49s-0.19,0.46-0.22,0.76h-0.82c0.03-0.41,0.12-0.77,0.28-1.06
		c0.16-0.29,0.37-0.53,0.63-0.72s0.55-0.32,0.89-0.41c0.34-0.08,0.7-0.13,1.07-0.13c0.35,0,0.68,0.04,0.99,0.11
		c0.31,0.08,0.58,0.2,0.81,0.37c0.23,0.17,0.41,0.39,0.54,0.67c0.13,0.28,0.2,0.62,0.2,1.03v3.81c0,0.32,0.06,0.52,0.17,0.6
		c0.11,0.09,0.34,0.07,0.68-0.06v0.63c-0.06,0.02-0.16,0.04-0.28,0.08s-0.24,0.05-0.36,0.05c-0.13,0-0.25-0.01-0.37-0.04
		c-0.14-0.02-0.24-0.06-0.32-0.13c-0.08-0.07-0.15-0.15-0.2-0.24c-0.05-0.09-0.08-0.2-0.1-0.31c-0.02-0.11-0.03-0.23-0.03-0.36
		c-0.34,0.38-0.73,0.67-1.18,0.87c-0.44,0.2-0.92,0.3-1.43,0.3c-0.31,0-0.6-0.04-0.89-0.12c-0.28-0.08-0.53-0.21-0.75-0.38
		c-0.22-0.17-0.39-0.38-0.51-0.63c-0.13-0.25-0.19-0.54-0.19-0.89c0-1.19,0.82-1.89,2.45-2.11L192.41,25.84z M193.77,26.25
		c-0.34,0.14-0.69,0.24-1.04,0.28s-0.7,0.08-1.05,0.11c-0.62,0.04-1.11,0.18-1.45,0.42c-0.35,0.23-0.52,0.59-0.52,1.07
		c0,0.22,0.04,0.4,0.13,0.56c0.09,0.16,0.2,0.29,0.34,0.39s0.3,0.18,0.49,0.23c0.18,0.05,0.37,0.07,0.56,0.07
		c0.32,0,0.64-0.04,0.95-0.12s0.58-0.21,0.82-0.37s0.43-0.38,0.57-0.64s0.22-0.56,0.22-0.91V26.25z"/>
	<path class="st8" d="M197.18,27.74c0.13,0.6,0.35,1.03,0.68,1.28c0.33,0.25,0.8,0.37,1.41,0.37c0.3,0,0.55-0.04,0.77-0.11
		c0.22-0.07,0.39-0.17,0.53-0.29c0.14-0.12,0.25-0.26,0.32-0.41s0.11-0.32,0.11-0.49c0-0.34-0.11-0.6-0.33-0.76s-0.5-0.3-0.83-0.39
		c-0.33-0.09-0.69-0.18-1.08-0.24s-0.75-0.17-1.08-0.3c-0.33-0.14-0.61-0.33-0.83-0.58c-0.22-0.25-0.33-0.61-0.33-1.07
		c0-0.59,0.21-1.07,0.64-1.44s1.03-0.56,1.82-0.56c0.76,0,1.37,0.17,1.85,0.51s0.76,0.9,0.86,1.7h-0.82
		c-0.07-0.54-0.28-0.92-0.62-1.14c-0.34-0.22-0.76-0.33-1.28-0.33c-0.51,0-0.91,0.11-1.18,0.33c-0.27,0.22-0.41,0.51-0.41,0.87
		c0,0.32,0.11,0.56,0.33,0.72c0.22,0.17,0.5,0.3,0.83,0.41s0.69,0.2,1.08,0.28c0.39,0.08,0.75,0.2,1.08,0.34
		c0.33,0.15,0.61,0.35,0.83,0.6c0.22,0.25,0.33,0.6,0.33,1.05c0,0.33-0.07,0.63-0.22,0.89c-0.14,0.26-0.34,0.47-0.6,0.64
		s-0.55,0.3-0.9,0.38c-0.35,0.09-0.73,0.13-1.14,0.13s-0.78-0.06-1.1-0.18c-0.32-0.12-0.59-0.29-0.82-0.51
		c-0.23-0.22-0.4-0.47-0.53-0.76c-0.13-0.29-0.2-0.6-0.22-0.93H197.18z"/>
	<path class="st8" d="M212.63,20.19h0.81v9.73h-0.81V28.7h-0.03c-0.12,0.23-0.27,0.44-0.45,0.62s-0.39,0.32-0.61,0.44
		s-0.45,0.21-0.68,0.27c-0.23,0.06-0.46,0.09-0.69,0.09c-0.57,0-1.05-0.09-1.45-0.28s-0.72-0.45-0.98-0.78s-0.44-0.72-0.56-1.17
		c-0.12-0.45-0.18-0.93-0.18-1.45c0-0.49,0.06-0.96,0.19-1.41c0.13-0.45,0.32-0.84,0.57-1.18s0.58-0.61,0.97-0.81
		c0.39-0.2,0.85-0.3,1.39-0.3c0.5,0,0.97,0.11,1.43,0.33s0.81,0.55,1.07,0.98V20.19z M212.63,26.4c0-0.4-0.05-0.77-0.16-1.13
		c-0.11-0.36-0.26-0.67-0.47-0.93c-0.2-0.27-0.45-0.48-0.74-0.63c-0.29-0.16-0.62-0.24-0.99-0.24c-0.42,0-0.79,0.08-1.1,0.25
		c-0.31,0.17-0.56,0.39-0.76,0.68c-0.2,0.29-0.34,0.62-0.43,1.01c-0.09,0.38-0.13,0.8-0.11,1.24c0,0.44,0.06,0.83,0.18,1.17
		c0.12,0.34,0.29,0.62,0.51,0.86c0.22,0.24,0.47,0.41,0.76,0.53c0.29,0.12,0.6,0.18,0.95,0.18c0.38,0,0.72-0.08,1.01-0.23
		s0.55-0.36,0.74-0.63s0.35-0.58,0.45-0.95C212.58,27.22,212.63,26.82,212.63,26.4z"/>
	<path class="st8" d="M215.99,26.61c0,0.38,0.05,0.74,0.15,1.08c0.1,0.34,0.25,0.63,0.44,0.88c0.19,0.25,0.44,0.45,0.74,0.59
		c0.3,0.15,0.64,0.22,1.03,0.22c0.53,0,0.99-0.14,1.37-0.42c0.38-0.28,0.63-0.68,0.76-1.19h0.91c-0.1,0.33-0.23,0.64-0.39,0.93
		c-0.16,0.28-0.36,0.53-0.61,0.74c-0.24,0.21-0.53,0.38-0.87,0.49s-0.72,0.18-1.16,0.18c-0.56,0-1.04-0.09-1.45-0.28
		c-0.41-0.19-0.74-0.45-1-0.78s-0.46-0.72-0.58-1.16c-0.13-0.45-0.19-0.93-0.19-1.44s0.07-1,0.22-1.45
		c0.15-0.45,0.36-0.85,0.64-1.18s0.61-0.6,1.01-0.8c0.4-0.19,0.85-0.29,1.35-0.29c0.96,0,1.72,0.33,2.27,0.99
		c0.55,0.66,0.82,1.62,0.81,2.89H215.99z M220.56,25.94c0-0.34-0.05-0.67-0.14-0.97s-0.23-0.56-0.42-0.78
		c-0.19-0.22-0.42-0.4-0.7-0.53s-0.6-0.2-0.96-0.2c-0.36,0-0.68,0.07-0.95,0.2s-0.51,0.32-0.7,0.54s-0.35,0.49-0.47,0.78
		c-0.12,0.3-0.19,0.61-0.23,0.95H220.56z"/>
	<path class="st8" d="M229.22,29.95c-0.1,0.02-0.23,0.05-0.39,0.09c-0.16,0.04-0.34,0.07-0.54,0.07c-0.41,0-0.71-0.1-0.93-0.3
		c-0.21-0.2-0.32-0.57-0.32-1.09V23.6h-0.99v-0.68h0.99v-1.95h0.81v1.95h1.31v0.68h-1.31v4.8c0,0.17,0,0.32,0.01,0.45
		c0.01,0.13,0.04,0.23,0.08,0.31s0.12,0.14,0.21,0.18c0.09,0.04,0.23,0.05,0.4,0.05c0.11,0,0.22-0.01,0.33-0.03
		c0.11-0.02,0.22-0.04,0.33-0.07V29.95z"/>
	<path class="st8" d="M231.37,29.93h-0.81v-7h0.81v1.31h0.03c0.23-0.56,0.52-0.95,0.87-1.17s0.83-0.33,1.41-0.33v0.88
		c-0.46-0.01-0.84,0.06-1.14,0.22s-0.53,0.36-0.71,0.62s-0.3,0.57-0.36,0.93c-0.07,0.36-0.1,0.73-0.1,1.12V29.93z"/>
	<path class="st8" d="M238.24,25.84c0.15-0.02,0.34-0.04,0.55-0.08c0.21-0.04,0.39-0.09,0.52-0.15c0.14-0.06,0.22-0.17,0.25-0.32
		c0.03-0.15,0.05-0.29,0.05-0.41c0-0.41-0.13-0.75-0.4-1.02c-0.27-0.27-0.71-0.4-1.35-0.4c-0.28,0-0.54,0.03-0.77,0.07
		c-0.23,0.05-0.44,0.14-0.62,0.26c-0.18,0.12-0.32,0.28-0.43,0.49s-0.19,0.46-0.22,0.76h-0.82c0.03-0.41,0.12-0.77,0.28-1.06
		c0.16-0.29,0.37-0.53,0.63-0.72s0.55-0.32,0.89-0.41c0.34-0.08,0.7-0.13,1.07-0.13c0.35,0,0.68,0.04,0.99,0.11
		c0.31,0.08,0.58,0.2,0.81,0.37c0.23,0.17,0.41,0.39,0.54,0.67c0.13,0.28,0.2,0.62,0.2,1.03v3.81c0,0.32,0.06,0.52,0.17,0.6
		c0.11,0.09,0.34,0.07,0.68-0.06v0.63c-0.06,0.02-0.16,0.04-0.28,0.08s-0.24,0.05-0.36,0.05c-0.13,0-0.25-0.01-0.37-0.04
		c-0.14-0.02-0.24-0.06-0.32-0.13c-0.08-0.07-0.15-0.15-0.2-0.24c-0.05-0.09-0.08-0.2-0.1-0.31c-0.02-0.11-0.03-0.23-0.03-0.36
		c-0.34,0.38-0.73,0.67-1.18,0.87c-0.44,0.2-0.92,0.3-1.43,0.3c-0.31,0-0.6-0.04-0.89-0.12c-0.28-0.08-0.53-0.21-0.75-0.38
		c-0.22-0.17-0.39-0.38-0.51-0.63c-0.13-0.25-0.19-0.54-0.19-0.89c0-1.19,0.82-1.89,2.45-2.11L238.24,25.84z M239.6,26.25
		c-0.34,0.14-0.69,0.24-1.04,0.28s-0.7,0.08-1.05,0.11c-0.62,0.04-1.11,0.18-1.45,0.42c-0.35,0.23-0.52,0.59-0.52,1.07
		c0,0.22,0.04,0.4,0.13,0.56c0.09,0.16,0.2,0.29,0.34,0.39s0.3,0.18,0.49,0.23c0.18,0.05,0.37,0.07,0.56,0.07
		c0.32,0,0.64-0.04,0.95-0.12s0.58-0.21,0.82-0.37s0.43-0.38,0.57-0.64s0.22-0.56,0.22-0.91V26.25z"/>
	<path class="st8" d="M243.35,29.93h-0.81v-7h0.81v0.97c0.32-0.34,0.66-0.62,1.01-0.84c0.35-0.22,0.76-0.32,1.25-0.32
		c0.43,0,0.83,0.07,1.2,0.22c0.37,0.15,0.68,0.41,0.93,0.78c0.17,0.25,0.27,0.51,0.3,0.78c0.03,0.27,0.05,0.54,0.05,0.83v4.58h-0.81
		v-4.57c0-0.63-0.14-1.1-0.42-1.42s-0.74-0.47-1.39-0.47c-0.25,0-0.48,0.04-0.69,0.12c-0.21,0.08-0.39,0.18-0.56,0.3
		c-0.17,0.13-0.31,0.27-0.43,0.43c-0.12,0.16-0.21,0.33-0.27,0.51c-0.08,0.22-0.13,0.44-0.15,0.65c-0.02,0.21-0.03,0.43-0.03,0.68
		V29.93z"/>
	<path class="st8" d="M250.53,27.74c0.13,0.6,0.35,1.03,0.68,1.28c0.33,0.25,0.8,0.37,1.41,0.37c0.3,0,0.55-0.04,0.77-0.11
		c0.22-0.07,0.39-0.17,0.53-0.29c0.14-0.12,0.25-0.26,0.32-0.41s0.11-0.32,0.11-0.49c0-0.34-0.11-0.6-0.33-0.76s-0.5-0.3-0.83-0.39
		c-0.33-0.09-0.69-0.18-1.08-0.24s-0.75-0.17-1.08-0.3c-0.33-0.14-0.61-0.33-0.83-0.58c-0.22-0.25-0.33-0.61-0.33-1.07
		c0-0.59,0.21-1.07,0.64-1.44c0.43-0.37,1.03-0.56,1.82-0.56c0.76,0,1.37,0.17,1.85,0.51c0.47,0.34,0.76,0.9,0.86,1.7h-0.83
		c-0.07-0.54-0.28-0.92-0.62-1.14c-0.34-0.22-0.76-0.33-1.28-0.33s-0.91,0.11-1.18,0.33c-0.27,0.22-0.41,0.51-0.41,0.87
		c0,0.32,0.11,0.56,0.33,0.72c0.22,0.17,0.5,0.3,0.83,0.41c0.33,0.1,0.69,0.2,1.08,0.28c0.39,0.08,0.75,0.2,1.08,0.34
		c0.33,0.15,0.61,0.35,0.83,0.6c0.22,0.25,0.33,0.6,0.33,1.05c0,0.33-0.07,0.63-0.22,0.89s-0.34,0.47-0.59,0.64
		c-0.25,0.17-0.55,0.3-0.9,0.38c-0.35,0.09-0.73,0.13-1.14,0.13c-0.41,0-0.78-0.06-1.1-0.18s-0.59-0.29-0.82-0.51
		c-0.23-0.22-0.4-0.47-0.53-0.76c-0.13-0.29-0.2-0.6-0.22-0.93H250.53z"/>
	<path class="st8" d="M257.72,32.69h-0.81v-9.76h0.81v1.23h0.03c0.12-0.22,0.27-0.43,0.45-0.61c0.18-0.18,0.39-0.33,0.61-0.45
		c0.22-0.12,0.45-0.21,0.68-0.27c0.23-0.06,0.46-0.09,0.69-0.09c0.57,0,1.05,0.09,1.45,0.28c0.4,0.19,0.72,0.45,0.98,0.78
		s0.44,0.72,0.56,1.17c0.12,0.45,0.18,0.93,0.18,1.45c0,0.49-0.06,0.96-0.19,1.41c-0.13,0.45-0.32,0.85-0.58,1.18
		s-0.58,0.61-0.97,0.81c-0.39,0.2-0.85,0.3-1.39,0.3c-0.5,0-0.97-0.11-1.43-0.33s-0.81-0.55-1.08-0.98V32.69z M257.72,26.45
		c0,0.4,0.05,0.77,0.16,1.13c0.11,0.36,0.26,0.67,0.47,0.93c0.2,0.27,0.45,0.48,0.74,0.64c0.29,0.16,0.62,0.24,0.99,0.24
		c0.41,0,0.78-0.08,1.09-0.25c0.31-0.17,0.57-0.39,0.76-0.68c0.2-0.29,0.34-0.62,0.43-1.01c0.09-0.38,0.13-0.8,0.11-1.24
		c0-0.44-0.06-0.83-0.18-1.17c-0.12-0.34-0.29-0.62-0.51-0.86c-0.22-0.23-0.47-0.41-0.76-0.53c-0.29-0.12-0.6-0.18-0.95-0.18
		c-0.38,0-0.72,0.08-1.01,0.23c-0.3,0.15-0.55,0.36-0.74,0.63c-0.2,0.27-0.35,0.58-0.45,0.95
		C257.77,25.63,257.72,26.03,257.72,26.45z"/>
	<path class="st8" d="M267.86,30.12c-0.45-0.01-0.87-0.09-1.26-0.24c-0.39-0.15-0.73-0.38-1.03-0.69c-0.29-0.31-0.53-0.69-0.7-1.15
		c-0.17-0.46-0.26-1-0.26-1.61c0-0.51,0.07-0.99,0.2-1.44c0.13-0.45,0.34-0.84,0.61-1.17c0.27-0.33,0.61-0.6,1.01-0.79
		c0.41-0.19,0.88-0.29,1.42-0.29c0.55,0,1.03,0.1,1.43,0.29c0.41,0.19,0.74,0.46,1.01,0.78c0.27,0.33,0.47,0.72,0.6,1.17
		c0.13,0.45,0.2,0.93,0.2,1.45c0,0.56-0.08,1.06-0.23,1.51c-0.15,0.45-0.37,0.84-0.66,1.16c-0.28,0.33-0.63,0.58-1.03,0.75
		S268.35,30.12,267.86,30.12z M270.24,26.43c0-0.41-0.04-0.8-0.13-1.16c-0.09-0.36-0.23-0.67-0.42-0.94
		c-0.19-0.27-0.43-0.47-0.73-0.63c-0.3-0.15-0.66-0.23-1.09-0.23c-0.42,0-0.79,0.08-1.09,0.25c-0.3,0.17-0.55,0.39-0.74,0.66
		c-0.19,0.27-0.33,0.59-0.42,0.95s-0.13,0.72-0.13,1.1c0,0.43,0.05,0.83,0.16,1.2c0.1,0.36,0.25,0.68,0.45,0.94s0.45,0.46,0.74,0.61
		c0.3,0.14,0.64,0.22,1.03,0.22c0.42,0,0.79-0.08,1.09-0.25s0.55-0.39,0.74-0.67c0.19-0.28,0.33-0.59,0.42-0.95
		C270.2,27.17,270.24,26.8,270.24,26.43z"/>
	<path class="st8" d="M273.45,29.93h-0.81v-7h0.81v1.31h0.03c0.23-0.56,0.52-0.95,0.87-1.17c0.36-0.22,0.83-0.33,1.41-0.33v0.88
		c-0.46-0.01-0.84,0.06-1.14,0.22c-0.3,0.15-0.53,0.36-0.71,0.62s-0.3,0.57-0.37,0.93c-0.07,0.36-0.1,0.73-0.1,1.12V29.93z"/>
	<path class="st8" d="M279.56,29.95c-0.1,0.02-0.23,0.05-0.39,0.09c-0.16,0.04-0.34,0.07-0.54,0.07c-0.41,0-0.71-0.1-0.93-0.3
		c-0.21-0.2-0.32-0.57-0.32-1.09V23.6h-0.99v-0.68h0.99v-1.95h0.81v1.95h1.31v0.68h-1.31v4.8c0,0.17,0,0.32,0.01,0.45
		c0.01,0.13,0.04,0.23,0.08,0.31s0.12,0.14,0.21,0.18s0.23,0.05,0.4,0.05c0.11,0,0.22-0.01,0.33-0.03c0.11-0.02,0.22-0.04,0.33-0.07
		V29.95z"/>
	<path class="st8" d="M281.35,26.61c0,0.38,0.05,0.74,0.15,1.08s0.25,0.63,0.44,0.88c0.19,0.25,0.44,0.45,0.74,0.59
		c0.3,0.15,0.64,0.22,1.03,0.22c0.53,0,0.99-0.14,1.37-0.42s0.63-0.68,0.76-1.19h0.91c-0.1,0.33-0.23,0.64-0.39,0.93
		c-0.16,0.28-0.36,0.53-0.61,0.74c-0.24,0.21-0.53,0.38-0.87,0.49c-0.33,0.12-0.72,0.18-1.16,0.18c-0.56,0-1.04-0.09-1.45-0.28
		c-0.41-0.19-0.74-0.45-1-0.78c-0.26-0.33-0.46-0.72-0.58-1.16c-0.13-0.45-0.19-0.93-0.19-1.44s0.07-1,0.22-1.45
		c0.15-0.45,0.36-0.85,0.64-1.18c0.27-0.34,0.61-0.6,1.01-0.8c0.4-0.19,0.85-0.29,1.35-0.29c0.96,0,1.72,0.33,2.27,0.99
		c0.55,0.66,0.82,1.62,0.81,2.89H281.35z M285.92,25.94c0-0.34-0.05-0.67-0.14-0.97s-0.23-0.56-0.42-0.78
		c-0.19-0.22-0.42-0.4-0.7-0.53s-0.6-0.2-0.96-0.2c-0.36,0-0.68,0.07-0.95,0.2c-0.28,0.13-0.51,0.32-0.7,0.54
		c-0.19,0.23-0.35,0.49-0.47,0.78c-0.12,0.3-0.19,0.61-0.23,0.95H285.92z"/>
	<path class="st8" d="M293.04,32.69h-0.81v-9.76h0.81v1.23h0.03c0.12-0.22,0.27-0.43,0.45-0.61c0.19-0.18,0.39-0.33,0.61-0.45
		s0.45-0.21,0.68-0.27c0.23-0.06,0.46-0.09,0.69-0.09c0.57,0,1.05,0.09,1.45,0.28c0.4,0.19,0.72,0.45,0.98,0.78
		c0.26,0.33,0.44,0.72,0.56,1.17c0.12,0.45,0.18,0.93,0.18,1.45c0,0.49-0.06,0.96-0.19,1.41c-0.12,0.45-0.32,0.85-0.57,1.18
		s-0.58,0.61-0.97,0.81c-0.39,0.2-0.86,0.3-1.39,0.3c-0.5,0-0.97-0.11-1.43-0.33s-0.81-0.55-1.08-0.98V32.69z M293.04,26.45
		c0,0.4,0.05,0.77,0.16,1.13c0.11,0.36,0.26,0.67,0.46,0.93c0.2,0.27,0.45,0.48,0.74,0.64c0.29,0.16,0.62,0.24,0.99,0.24
		c0.41,0,0.78-0.08,1.09-0.25s0.57-0.39,0.76-0.68c0.2-0.29,0.34-0.62,0.43-1.01c0.09-0.38,0.12-0.8,0.11-1.24
		c0-0.44-0.06-0.83-0.18-1.17c-0.12-0.34-0.29-0.62-0.51-0.86s-0.47-0.41-0.76-0.53c-0.29-0.12-0.6-0.18-0.95-0.18
		c-0.38,0-0.72,0.08-1.01,0.23c-0.3,0.15-0.55,0.36-0.74,0.63c-0.2,0.27-0.35,0.58-0.45,0.95
		C293.09,25.63,293.04,26.03,293.04,26.45z"/>
	<path class="st8" d="M305.14,22.92h0.81v7h-0.81v-0.97c-0.11,0.13-0.23,0.26-0.37,0.39c-0.13,0.13-0.29,0.26-0.47,0.37
		c-0.18,0.11-0.38,0.21-0.62,0.28s-0.5,0.12-0.81,0.12c-0.47,0-0.86-0.07-1.18-0.2s-0.57-0.31-0.76-0.55
		c-0.19-0.23-0.33-0.51-0.42-0.82c-0.09-0.31-0.13-0.65-0.13-1.02v-4.61h0.81v4.6c0,0.6,0.14,1.07,0.42,1.39
		c0.28,0.32,0.74,0.48,1.38,0.48c0.33,0,0.63-0.07,0.9-0.2c0.27-0.13,0.49-0.31,0.67-0.55c0.18-0.23,0.32-0.51,0.42-0.84
		c0.1-0.32,0.15-0.68,0.15-1.07V22.92z M302.41,22.17l1.5-1.88h1.04l-1.85,1.88H302.41z"/>
	<path class="st8" d="M308.81,29.93H308v-9.73h0.81v3.85c0.26-0.43,0.62-0.76,1.08-0.98s0.93-0.33,1.43-0.33
		c0.53,0,0.99,0.1,1.39,0.3c0.39,0.2,0.72,0.47,0.97,0.81c0.26,0.34,0.45,0.73,0.58,1.18c0.13,0.45,0.19,0.92,0.19,1.41
		c0,0.51-0.06,1-0.18,1.45c-0.12,0.45-0.3,0.84-0.56,1.17s-0.58,0.59-0.98,0.78s-0.88,0.28-1.45,0.28c-0.23,0-0.46-0.03-0.69-0.09
		c-0.23-0.06-0.46-0.15-0.68-0.27s-0.42-0.26-0.61-0.44s-0.34-0.38-0.45-0.62h-0.03V29.93z M308.81,26.4c0,0.42,0.05,0.82,0.16,1.18
		c0.1,0.37,0.25,0.68,0.45,0.95s0.45,0.48,0.74,0.63c0.3,0.15,0.64,0.23,1.01,0.23c0.34,0,0.66-0.06,0.95-0.18
		c0.29-0.12,0.54-0.3,0.76-0.53c0.22-0.23,0.38-0.52,0.51-0.86c0.12-0.34,0.18-0.73,0.18-1.17c0.02-0.44-0.02-0.85-0.11-1.24
		s-0.23-0.72-0.43-1.01c-0.2-0.29-0.45-0.52-0.76-0.68c-0.31-0.17-0.67-0.25-1.09-0.25c-0.37,0-0.7,0.08-0.99,0.24
		c-0.29,0.16-0.54,0.37-0.74,0.63c-0.2,0.27-0.36,0.58-0.47,0.93C308.87,25.63,308.81,26,308.81,26.4z"/>
	<path class="st8" d="M316.29,29.93v-9.73h0.81v9.73H316.29z"/>
	<path class="st8" d="M319.25,21.4v-1.2h0.89v1.2H319.25z M319.29,29.93v-7h0.81v7H319.29z"/>
	<path class="st8" d="M327.13,25.13c-0.14-0.52-0.39-0.93-0.74-1.22s-0.8-0.44-1.34-0.44c-0.42,0-0.77,0.09-1.07,0.26
		c-0.3,0.17-0.54,0.4-0.73,0.68c-0.19,0.28-0.33,0.6-0.42,0.96c-0.09,0.36-0.13,0.71-0.13,1.08c0,0.37,0.04,0.73,0.13,1.08
		s0.22,0.67,0.41,0.95c0.19,0.28,0.43,0.5,0.73,0.67c0.3,0.17,0.66,0.25,1.08,0.25c0.6,0,1.09-0.17,1.45-0.5
		c0.37-0.33,0.6-0.79,0.7-1.38h0.87c-0.07,0.39-0.19,0.74-0.34,1.06c-0.16,0.32-0.36,0.59-0.61,0.82s-0.54,0.41-0.89,0.53
		s-0.73,0.19-1.18,0.19c-0.56,0-1.04-0.09-1.45-0.28c-0.41-0.19-0.74-0.45-1-0.78c-0.26-0.33-0.46-0.72-0.58-1.17
		c-0.13-0.45-0.19-0.93-0.19-1.45c0-0.49,0.07-0.95,0.21-1.4s0.34-0.84,0.62-1.18s0.61-0.62,1.01-0.82c0.4-0.2,0.86-0.3,1.39-0.3
		c0.81,0,1.47,0.19,1.97,0.58s0.81,0.99,0.94,1.81H327.13z"/>
</g>
<g class="st10">
	<path class="st8" d="M332.45,30.12c-0.45-0.01-0.87-0.09-1.26-0.24c-0.39-0.15-0.74-0.38-1.03-0.69c-0.29-0.31-0.52-0.69-0.7-1.15
		c-0.17-0.46-0.26-1-0.26-1.61c0-0.51,0.07-0.99,0.2-1.44s0.34-0.84,0.61-1.17c0.27-0.33,0.61-0.6,1.01-0.79
		c0.41-0.19,0.88-0.29,1.42-0.29c0.55,0,1.03,0.1,1.43,0.29c0.41,0.19,0.74,0.46,1.01,0.78c0.27,0.33,0.47,0.72,0.6,1.17
		c0.13,0.45,0.2,0.93,0.2,1.45c0,0.56-0.08,1.06-0.23,1.51c-0.15,0.45-0.37,0.84-0.66,1.16c-0.28,0.33-0.63,0.58-1.03,0.75
		C333.38,30.03,332.93,30.12,332.45,30.12z M334.83,26.43c0-0.41-0.05-0.8-0.14-1.16s-0.23-0.67-0.42-0.94
		c-0.19-0.27-0.43-0.47-0.73-0.63c-0.3-0.15-0.66-0.23-1.09-0.23c-0.42,0-0.79,0.08-1.09,0.25c-0.3,0.17-0.55,0.39-0.74,0.66
		c-0.19,0.27-0.33,0.59-0.42,0.95c-0.09,0.36-0.14,0.72-0.14,1.1c0,0.43,0.05,0.83,0.16,1.2c0.1,0.36,0.25,0.68,0.45,0.94
		s0.45,0.46,0.74,0.61c0.3,0.14,0.64,0.22,1.03,0.22c0.42,0,0.79-0.08,1.09-0.25c0.3-0.17,0.55-0.39,0.74-0.67s0.33-0.59,0.42-0.95
		S334.83,26.8,334.83,26.43z"/>
</g>
</svg>
