<?xml version="1.0" encoding="utf-8"?>
<!-- Generator: Adobe Illustrator 24.0.2, SVG Export Plug-In . SVG Version: 6.00 Build 0)  -->
<svg version="1.1" id="Capa_1" xmlns="http://www.w3.org/2000/svg" xmlns:xlink="http://www.w3.org/1999/xlink" x="0px" y="0px"
	 viewBox="0 0 485.22 299.33" style="enable-background:new 0 0 485.22 299.33;" xml:space="preserve">
<style type="text/css">
	.st0{clip-path:url(#SVGID_2_);fill:#703A7A;}
	.st1{clip-path:url(#SVGID_2_);fill:none;stroke:#FFFFFF;stroke-width:1.5;stroke-linejoin:round;stroke-miterlimit:10;}
	.st2{clip-path:url(#SVGID_2_);fill:#6679A7;}
	.st3{clip-path:url(#SVGID_2_);fill:#8AC485;}
	.st4{clip-path:url(#SVGID_2_);fill:#FCED5A;}
	.st5{font-family:'Helvetica-Light';}
	.st6{font-size:9.608px;}
	.st7{clip-path:url(#SVGID_4_);fill:#703A7A;}
	.st8{clip-path:url(#SVGID_4_);fill:none;stroke:#FFFFFF;stroke-width:1.5;stroke-linejoin:round;stroke-miterlimit:10;}
	.st9{clip-path:url(#SVGID_4_);fill:#6679A7;}
	.st10{clip-path:url(#SVGID_4_);fill:#8AC485;}
	.st11{clip-path:url(#SVGID_4_);fill:#FCED5A;}
	.st12{fill:#703A7A;}
	.st13{fill:#6679A7;}
	.st14{fill:#8AC485;}
	.st15{fill:#FCED5A;}
	.st16{clip-path:url(#SVGID_6_);}
	.st17{font-size:8.1856px;}
	.st18{font-family:'Helvetica';}
	.st19{font-size:15px;}
</style>
<g>
	<defs>
		<rect id="SVGID_1_" width="495.61" height="295.93"/>
	</defs>
	<clipPath id="SVGID_2_">
		<use xlink:href="#SVGID_1_"  style="overflow:visible;"/>
	</clipPath>
	<path class="st0" d="M42.44,178.45c23.08,0,41.79,18.71,41.79,41.79c0,2.66-0.25,5.32-0.76,7.94l-41.03-7.94V178.45z"/>
	<path class="st0" d="M42.54,178.56c22.96,0,41.58,18.63,41.58,41.61c0,2.65-0.25,5.3-0.76,7.9l-40.82-7.9V178.56z"/>
	<path class="st1" d="M42.54,178.56c22.96,0,41.58,18.63,41.58,41.61c0,2.65-0.25,5.3-0.76,7.9l-40.82-7.9V178.56z"/>
	<path class="st2" d="M83.47,228.18c-4.38,22.66-26.31,37.48-48.97,33.09c-6.04-1.17-11.75-3.66-16.71-7.28l24.65-33.75
		L83.47,228.18z"/>
	<path class="st3" d="M17.79,253.99c-18.43-13.47-22.65-39.23-9.47-57.87l34.12,24.13L17.79,253.99z"/>
	<path class="st1" d="M17.81,253.88c-18.34-13.42-22.54-39.09-9.42-57.66l33.95,24.04L17.81,253.88z"/>
	<path class="st4" d="M8.32,196.12c7.83-11.08,20.56-17.66,34.12-17.66v41.79L8.32,196.12z"/>
	<path class="st1" d="M8.42,196.13c7.78-11.02,20.43-17.57,33.91-17.57v41.58L8.42,196.13z"/>
	<path class="st0" d="M143.07,178.56c7.55,0,14.95,2.07,21.41,6l-21.41,35.58V178.56z"/>
	<path class="st1" d="M143.07,178.56c7.55,0,14.95,2.07,21.41,6l-21.41,35.58V178.56z"/>
	<path class="st0" d="M143.07,178.56c7.55,0,14.95,2.07,21.41,6l-21.41,35.58V178.56z"/>
	<path class="st1" d="M143.07,178.56c7.55,0,14.95,2.07,21.41,6l-21.41,35.58V178.56z"/>
	<path class="st2" d="M164.58,184.48c13.44,8.12,21.19,23.1,20.06,38.77l-41.68-3L164.58,184.48z"/>
	<path class="st1" d="M164.58,184.59c13.37,8.08,21.08,22.98,19.96,38.56l-41.47-2.99L164.58,184.59z"/>
	<path class="st3" d="M184.65,223.25c-1.66,23.02-21.67,40.34-44.69,38.68c-10.53-0.76-20.38-5.48-27.58-13.2l30.58-28.48
		L184.65,223.25z"/>
	<path class="st1" d="M184.54,223.34c-1.65,22.9-21.6,40.13-44.56,38.48c-10.5-0.76-20.32-5.45-27.5-13.14l30.49-28.33
		L184.54,223.34z"/>
	<path class="st4" d="M112.38,248.72c-15.73-16.89-14.79-43.33,2.1-59.06c7.74-7.2,17.91-11.21,28.48-11.21v41.79L112.38,248.72z"/>
	<path class="st1" d="M112.43,248.62c-15.65-16.84-14.71-43.2,2.09-58.88c7.69-7.18,17.82-11.17,28.33-11.17v41.66L112.43,248.62z"
		/>
	<path class="st0" d="M42.55,61.09c3.44,0,6.87,0.44,10.21,1.31l-10.21,40.27V61.09z"/>
	<path class="st1" d="M42.55,61.09c3.44,0,6.87,0.44,10.21,1.31l-10.21,40.27V61.09z"/>
	<path class="st0" d="M42.55,61.09c3.44,0,6.87,0.44,10.21,1.31l-10.21,40.27V61.09z"/>
	<path class="st1" d="M42.55,61.09c3.44,0,6.87,0.44,10.21,1.31l-10.21,40.27V61.09z"/>
	<path class="st2" d="M52.86,62.3c15.2,3.91,26.92,16.01,30.36,31.32l-40.78,9.15L52.86,62.3z"/>
	<path class="st1" d="M52.92,62.41c15.12,3.89,26.78,15.93,30.2,31.16l-40.56,9.1L52.92,62.41z"/>
	<path class="st3" d="M83.22,93.62c5.04,22.48-9.05,44.79-31.51,49.9l-9.26-40.75L83.22,93.62z"/>
	<path class="st1" d="M83.12,93.73c5.02,22.38-9.01,44.6-31.35,49.69l-9.22-40.58L83.12,93.73z"/>
	<path class="st4" d="M51.71,143.52c-22.51,5.12-44.9-8.98-50.02-31.49s8.98-44.9,31.48-50.02c3.04-0.69,6.15-1.04,9.27-1.04v41.79
		L51.71,143.52z"/>
	<path class="st1" d="M51.6,143.42c-22.41,5.1-44.71-8.96-49.81-31.4s8.94-44.79,31.35-49.89c3.03-0.69,6.12-1.04,9.23-1.04v41.69
		L51.6,143.42z"/>
	<path class="st0" d="M139.5,61.09c6.1,0,12.12,1.36,17.63,3.98l-17.63,37.6V61.09z"/>
	<path class="st1" d="M139.5,61.09c6.1,0,12.12,1.36,17.63,3.98l-17.63,37.6V61.09z"/>
	<path class="st0" d="M139.5,61.09c6.1,0,12.12,1.36,17.63,3.98l-17.63,37.6V61.09z"/>
	<path class="st1" d="M139.5,61.09c6.1,0,12.12,1.36,17.63,3.98l-17.63,37.6V61.09z"/>
	<path class="st2" d="M157.24,64.99c14.67,6.93,24,21.72,23.95,37.94l-41.79-0.15L157.24,64.99z"/>
	<path class="st1" d="M157.25,65.1c14.59,6.89,23.88,21.6,23.82,37.73l-41.58-0.15L157.25,65.1z"/>
	<path class="st3" d="M181.18,102.93c-0.08,23.08-18.86,41.72-41.94,41.64c-1.15-0.01-2.3-0.06-3.45-0.15l3.6-41.64L181.18,102.93z"
		/>
	<path class="st1" d="M181.08,103.03c-0.08,22.96-18.77,41.51-41.74,41.43c-1.15,0-2.29-0.06-3.43-0.15l3.58-41.42L181.08,103.03z"
		/>
	<path class="st4" d="M135.8,144.41c-23-1.98-40.03-22.24-38.04-45.23c1.86-21.61,19.95-38.2,41.63-38.2v41.79L135.8,144.41z"/>
	<path class="st1" d="M135.71,144.31c-22.88-1.98-39.82-22.18-37.85-45.11c1.86-21.55,19.85-38.1,41.42-38.1v41.68L135.71,144.31z"
		/>
</g>
<text transform="matrix(1 0 0 1 20.5415 50.8337)" class="st5 st6">Barcelona</text>
<text transform="matrix(1 0 0 1 129.3521 50.8337)" class="st5 st6">Bilbao</text>
<text transform="matrix(1 0 0 1 196.0312 50.8337)" class="st5 st6">Las Palmas de GC</text>
<text transform="matrix(1 0 0 1 318.082 49.825)" class="st5 st6">Madrid</text>
<text transform="matrix(1 0 0 1 414.21 49.825)" class="st5 st6">Málaga</text>
<text transform="matrix(1 0 0 1 27.7573 171.3372)" class="st5 st6">Murcia</text>
<text transform="matrix(1 0 0 1 129.6211 171.3372)" class="st5 st6">Palma</text>
<text transform="matrix(1 0 0 1 231.543 171.3372)" class="st5 st6">Sevilla</text>
<text transform="matrix(1 0 0 1 321.7334 171.3372)" class="st5 st6">Valencia</text>
<text transform="matrix(1 0 0 1 414.835 171.3372)" class="st5 st6">Zaragoza</text>
<g>
	<defs>
		<rect id="SVGID_3_" width="495.61" height="295.93"/>
	</defs>
	<clipPath id="SVGID_4_">
		<use xlink:href="#SVGID_3_"  style="overflow:visible;"/>
	</clipPath>
	<path class="st7" d="M236.44,61.02c19.17,0,35.86,13.11,40.39,31.74l-40.39,9.84V61.02z"/>
	<path class="st8" d="M236.44,61.02c19.17,0,35.86,13.11,40.39,31.74l-40.39,9.84V61.02z"/>
	<path class="st7" d="M236.44,61.02c19.17,0,35.86,13.11,40.39,31.74l-40.39,9.84V61.02z"/>
	<path class="st8" d="M236.44,61.02c19.17,0,35.86,13.11,40.39,31.74l-40.39,9.84V61.02z"/>
	<path class="st9" d="M276.94,92.81c5.46,22.43-8.29,45.03-30.72,50.49c-3.1,0.76-6.28,1.15-9.47,1.18l-0.41-41.79L276.94,92.81z"/>
	<path class="st8" d="M276.84,92.92c5.43,22.33-8.25,44.85-30.56,50.29c-3.09,0.75-6.25,1.15-9.43,1.18l-0.41-41.62L276.84,92.92z"
		/>
	<path class="st10" d="M236.75,144.49c-16.09,0.16-30.85-8.94-37.93-23.39l37.52-18.4L236.75,144.49z"/>
	<path class="st8" d="M236.64,144.38c-16,0.16-30.68-8.89-37.72-23.27l37.31-18.31L236.64,144.38z"/>
	<path class="st11" d="M198.82,121.1c-10.16-20.72-1.6-45.76,19.12-55.92c5.73-2.81,12.02-4.27,18.4-4.27v41.79L198.82,121.1z"/>
	<path class="st8" d="M198.9,121c-10.11-20.65-1.59-45.6,19.02-55.73c5.7-2.8,11.96-4.25,18.31-4.25v41.64L198.9,121z"/>
	<path class="st7" d="M333.39,61.01c6.96,0,13.8,1.77,19.9,5.13l-19.9,36.45V61.01z"/>
	<path class="st8" d="M333.39,61.01c6.96,0,13.8,1.77,19.9,5.13l-19.9,36.45V61.01z"/>
	<path class="st7" d="M333.39,61.01c6.96,0,13.8,1.77,19.9,5.13l-19.9,36.45V61.01z"/>
	<path class="st8" d="M333.39,61.01c6.96,0,13.8,1.77,19.9,5.13l-19.9,36.45V61.01z"/>
	<path class="st9" d="M353.4,66.06c16.72,9.18,25.1,28.52,20.37,47l-40.49-10.36L353.4,66.06z"/>
	<path class="st8" d="M353.41,66.17c16.63,9.14,24.97,28.39,20.27,46.78l-40.28-10.32L353.41,66.17z"/>
	<path class="st10" d="M373.77,113.06c-5.72,22.36-28.49,35.85-50.85,30.12c-0.89-0.23-1.77-0.48-2.63-0.77l13-39.72L373.77,113.06z
		"/>
	<path class="st8" d="M373.67,113.11c-5.7,22.25-28.38,35.66-50.65,29.97c-0.88-0.23-1.76-0.48-2.62-0.76l12.95-39.52L373.67,113.11
		z"/>
	<path class="st11" d="M320.29,142.41c-21.94-7.18-33.9-30.78-26.72-52.72c5.62-17.18,21.65-28.79,39.72-28.79v41.79L320.29,142.41z
		"/>
	<path class="st8" d="M320.25,142.31c-21.82-7.16-33.73-30.7-26.58-52.58c5.59-17.13,21.54-28.72,39.52-28.72v41.68L320.25,142.31z"
		/>
	<path class="st7" d="M430.33,61.24c12.48,0,24.29,5.62,32.18,15.31l-32.18,26.27V61.24z"/>
	<path class="st8" d="M430.33,61.24c12.48,0,24.29,5.62,32.18,15.31l-32.18,26.27V61.24z"/>
	<path class="st7" d="M430.33,61.24c12.48,0,24.29,5.62,32.18,15.31l-32.18,26.27V61.24z"/>
	<path class="st8" d="M430.33,61.24c12.48,0,24.29,5.62,32.18,15.31l-32.18,26.27V61.24z"/>
	<path class="st9" d="M462.61,76.52c14.54,17.84,11.93,44.08-5.85,58.69l-26.54-32.28L462.61,76.52z"/>
	<path class="st8" d="M462.55,76.63c14.47,17.77,11.87,43.92-5.83,58.48l-26.4-32.17L462.55,76.63z"/>
	<path class="st10" d="M456.76,135.21c-17.01,13.98-41.94,12.37-57-3.68l30.47-28.6L456.76,135.21z"/>
	<path class="st8" d="M456.65,135.16c-16.94,13.91-41.78,12.3-56.79-3.66l30.36-28.46L456.65,135.16z"/>
	<path class="st11" d="M399.75,131.53c-15.8-16.83-14.96-43.27,1.87-59.07c7.75-7.27,17.97-11.32,28.6-11.32v41.79L399.75,131.53z"
		/>
	<path class="st8" d="M399.8,131.43c-15.72-16.78-14.89-43.14,1.86-58.89c7.71-7.25,17.89-11.29,28.46-11.29v41.66L399.8,131.43z"/>
	<path class="st7" d="M245.99,177.68c7.47,0,14.8,2.03,21.21,5.88l-21.21,35.7V177.68z"/>
	<path class="st8" d="M245.99,177.68c7.47,0,14.8,2.03,21.21,5.88l-21.21,35.7V177.68z"/>
	<path class="st7" d="M245.99,177.68c7.47,0,14.8,2.03,21.21,5.88l-21.21,35.7V177.68z"/>
	<path class="st8" d="M245.99,177.68c7.47,0,14.8,2.03,21.21,5.88l-21.21,35.7V177.68z"/>
	<path class="st9" d="M267.31,183.48c14.97,8.94,22.82,26.24,19.69,43.4l-41.11-7.52L267.31,183.48z"/>
	<path class="st8" d="M267.3,183.59c14.9,8.9,22.71,26.11,19.59,43.18l-40.9-7.48L267.3,183.59z"/>
	<path class="st10" d="M286.99,226.88c-4.15,22.7-25.92,37.74-48.62,33.59c-3.86-0.71-7.61-1.95-11.12-3.7l18.64-37.4L286.99,226.88
		z"/>
	<path class="st8" d="M286.89,226.95c-4.14,22.59-25.83,37.55-48.45,33.42c-3.85-0.7-7.58-1.94-11.08-3.68l18.57-37.22
		L286.89,226.95z"/>
	<path class="st11" d="M227.25,256.77c-20.66-10.29-29.06-35.38-18.77-56.04c7.07-14.19,21.55-23.15,37.4-23.15v41.79L227.25,256.77
		z"/>
	<path class="st8" d="M227.24,256.67c-20.55-10.27-28.92-35.29-18.68-55.89c7.03-14.15,21.45-23.09,37.22-23.09v41.68L227.24,256.67
		z"/>
	<path class="st7" d="M344.83,178.07c14.38,0,27.74,7.45,35.32,19.69l-35.32,21.89V178.07z"/>
	<path class="st8" d="M344.83,178.07c14.38,0,27.74,7.45,35.32,19.69l-35.32,21.89V178.07z"/>
	<path class="st7" d="M344.83,178.07c14.38,0,27.74,7.45,35.32,19.69l-35.32,21.89V178.07z"/>
	<path class="st8" d="M344.83,178.07c14.38,0,27.74,7.45,35.32,19.69l-35.32,21.89V178.07z"/>
	<path class="st9" d="M380.26,197.75c8.17,13.2,8.36,29.84,0.48,43.21l-36.01-21.21L380.26,197.75z"/>
	<path class="st8" d="M380.18,197.85c8.13,13.13,8.31,29.69,0.48,43l-35.83-21.1L380.18,197.85z"/>
	<path class="st10" d="M380.74,240.96c-11.71,19.89-37.33,26.51-57.22,14.8c-1.72-1.01-3.37-2.15-4.93-3.4l26.14-32.61
		L380.74,240.96z"/>
	<path class="st8" d="M380.63,240.96c-11.67,19.79-37.2,26.38-57.02,14.73c-1.72-1.01-3.36-2.14-4.92-3.39l26.05-32.44
		L380.63,240.96z"/>
	<path class="st11" d="M318.59,252.36c-18.01-14.44-20.9-40.74-6.47-58.75c7.93-9.89,19.92-15.65,32.61-15.65v41.79L318.59,252.36z"
		/>
	<path class="st8" d="M318.62,252.25c-17.92-14.4-20.8-40.62-6.43-58.58c7.89-9.87,19.83-15.61,32.44-15.61l0,41.67L318.62,252.25z"
		/>
	<path class="st7" d="M439.56,178.06c10.3,0,20.22,3.84,27.85,10.77l-27.85,30.81V178.06z"/>
	<path class="st8" d="M439.56,178.06c10.3,0,20.22,3.84,27.85,10.77l-27.85,30.81V178.06z"/>
	<path class="st7" d="M439.56,178.06c10.3,0,20.22,3.84,27.85,10.77l-27.85,30.81V178.06z"/>
	<path class="st8" d="M439.56,178.06c10.3,0,20.22,3.84,27.85,10.77l-27.85,30.81V178.06z"/>
	<path class="st9" d="M467.52,188.79c11.69,10.6,16.42,26.88,12.22,42.09l-40.28-11.12L467.52,188.79z"/>
	<path class="st8" d="M467.48,188.89c11.63,10.54,16.33,26.74,12.16,41.88l-40.08-11.07L467.48,188.89z"/>
	<path class="st10" d="M479.74,230.87c-5.97,21.62-27.94,34.67-49.78,29.57l9.5-40.7L479.74,230.87z"/>
	<path class="st8" d="M479.63,230.92c-5.94,21.51-27.82,34.49-49.57,29.42l9.46-40.49L479.63,230.92z"/>
	<path class="st11" d="M429.96,260.45c-22.48-5.24-36.45-27.72-31.2-50.19c4.41-18.91,21.28-32.29,40.7-32.29v41.79L429.96,260.45z"
		/>
	<path class="st8" d="M429.9,260.34c-22.36-5.23-36.26-27.65-31.04-50.06c4.39-18.86,21.17-32.21,40.49-32.21v41.68L429.9,260.34z"
		/>
</g>
<rect x="149.77" y="286.24" class="st12" width="17.1" height="9.69"/>
<rect x="207.85" y="286.24" class="st13" width="17.1" height="9.69"/>
<rect x="263.84" y="286.24" class="st14" width="17.1" height="9.69"/>
<rect x="321.32" y="286.24" class="st15" width="17.1" height="9.69"/>
<g>
	<defs>
		<rect id="SVGID_5_" width="495.61" height="295.93"/>
	</defs>
	<clipPath id="SVGID_6_">
		<use xlink:href="#SVGID_5_"  style="overflow:visible;"/>
	</clipPath>
	<g class="st16">
		<text transform="matrix(1 0 0 1 169.1016 294.6545)" class="st5 st17">De 0 a 1</text>
	</g>
	<g class="st16">
		<text transform="matrix(1 0 0 1 227.1865 294.6545)" class="st5 st17">De 1 a 2</text>
	</g>
	<g class="st16">
		<text transform="matrix(1 0 0 1 282.5869 294.6545)" class="st5 st17">De 2 a 3</text>
	</g>
	<g class="st16">
		<text transform="matrix(1 0 0 1 342.4971 294.6545)" class="st5 st17"> 3</text>
	</g>
</g>
<text transform="matrix(1 0 0 1 18.4521 18.2502)" class="st18 st19">Distribución del porcentaje de población que vive en entornos según </text>
<text transform="matrix(1 0 0 1 135.1973 33.2502)" class="st18 st19">el íncide de accesibilidad general</text>
</svg>
